<?xml version="1.0" encoding="utf-8" standalone="no"?>
<!DOCTYPE svg PUBLIC "-//W3C//DTD SVG 1.1//EN"
  "http://www.w3.org/Graphics/SVG/1.1/DTD/svg11.dtd">
<svg xmlns:xlink="http://www.w3.org/1999/xlink" width="576pt" height="288pt" viewBox="0 0 576 288" xmlns="http://www.w3.org/2000/svg" version="1.1">
 <metadata>
  <rdf:RDF xmlns:dc="http://purl.org/dc/elements/1.1/" xmlns:cc="http://creativecommons.org/ns#" xmlns:rdf="http://www.w3.org/1999/02/22-rdf-syntax-ns#">
   <cc:Work>
    <dc:type rdf:resource="http://purl.org/dc/dcmitype/StillImage"/>
    <dc:date>2022-08-14T15:26:32.453347</dc:date>
    <dc:format>image/svg+xml</dc:format>
    <dc:creator>
     <cc:Agent>
      <dc:title>Matplotlib v3.5.2, https://matplotlib.org/</dc:title>
     </cc:Agent>
    </dc:creator>
   </cc:Work>
  </rdf:RDF>
 </metadata>
 <defs>
  <style type="text/css">*{stroke-linejoin: round; stroke-linecap: butt}</style>
 </defs>
 <g id="figure_1">
  <g id="patch_1">
   <path d="M 0 288 
L 576 288 
L 576 0 
L 0 0 
L 0 288 
z
" style="fill: none"/>
  </g>
  <g id="axes_1">
   <g id="patch_2">
    <path d="M 72 252 
L 518.4 252 
L 518.4 34.56 
L 72 34.56 
z
" style="fill: #ffffff"/>
   </g>
   <g id="matplotlib.axis_1">
    <g id="xtick_1">
     <g id="line2d_1">
      <defs>
       <path id="m8e25d363b8" d="M 0 0 
L 0 3.5 
" style="stroke: #000000; stroke-width: 0.8"/>
      </defs>
      <g>
       <use xlink:href="#m8e25d363b8" x="129.183471" y="252" style="stroke: #000000; stroke-width: 0.8"/>
      </g>
     </g>
     <g id="text_1">
      <!-- 4 -->
      <g transform="translate(126.548315 266.4)scale(0.1 -0.1)">
       <defs>
        <path id="Quicksand-Regular-34" d="M 2349 0 
Q 2266 0 2214 57 
Q 2163 115 2163 192 
L 2163 3949 
L 2246 3898 
L 563 1670 
L 544 1741 
L 3002 1741 
Q 3078 1741 3132 1689 
Q 3187 1638 3187 1562 
Q 3187 1485 3132 1433 
Q 3078 1382 3002 1382 
L 282 1382 
Q 205 1382 147 1443 
Q 90 1504 90 1581 
Q 90 1651 134 1709 
L 2195 4403 
Q 2227 4448 2275 4464 
Q 2323 4480 2355 4480 
Q 2438 4480 2492 4422 
Q 2547 4365 2547 4288 
L 2547 192 
Q 2547 115 2489 57 
Q 2432 0 2349 0 
z
" transform="scale(0.015625)"/>
       </defs>
       <use xlink:href="#Quicksand-Regular-34"/>
      </g>
     </g>
    </g>
    <g id="xtick_2">
     <g id="line2d_2">
      <g>
       <use xlink:href="#m8e25d363b8" x="202.968595" y="252" style="stroke: #000000; stroke-width: 0.8"/>
      </g>
     </g>
     <g id="text_2">
      <!-- 6 -->
      <g transform="translate(200.278751 266.4)scale(0.1 -0.1)">
       <defs>
        <path id="Quicksand-Regular-36" d="M 1837 -64 
Q 1466 -64 1187 70 
Q 909 205 726 432 
Q 544 659 457 947 
Q 371 1235 371 1536 
Q 371 1843 448 2198 
Q 525 2554 685 2918 
Q 845 3283 1078 3609 
Q 1312 3936 1622 4195 
Q 1933 4454 2323 4602 
Q 2368 4614 2400 4614 
Q 2483 4614 2544 4569 
Q 2605 4525 2605 4416 
Q 2605 4352 2563 4304 
Q 2522 4256 2451 4230 
Q 2182 4115 1920 3904 
Q 1658 3693 1434 3417 
Q 1210 3142 1053 2825 
Q 896 2509 832 2182 
L 691 2099 
Q 806 2310 988 2473 
Q 1171 2637 1408 2736 
Q 1645 2835 1920 2835 
Q 2208 2835 2451 2713 
Q 2694 2592 2870 2384 
Q 3046 2176 3145 1913 
Q 3245 1651 3245 1370 
Q 3245 992 3062 665 
Q 2880 339 2563 137 
Q 2246 -64 1837 -64 
z
M 1830 307 
Q 2125 307 2355 441 
Q 2586 576 2717 816 
Q 2848 1056 2848 1370 
Q 2848 1658 2736 1904 
Q 2624 2150 2403 2307 
Q 2182 2464 1856 2464 
Q 1517 2464 1270 2310 
Q 1024 2157 893 1904 
Q 762 1651 762 1350 
Q 762 1082 890 842 
Q 1018 602 1258 454 
Q 1498 307 1830 307 
z
" transform="scale(0.015625)"/>
       </defs>
       <use xlink:href="#Quicksand-Regular-36"/>
      </g>
     </g>
    </g>
    <g id="xtick_3">
     <g id="line2d_3">
      <g>
       <use xlink:href="#m8e25d363b8" x="276.753719" y="252" style="stroke: #000000; stroke-width: 0.8"/>
      </g>
     </g>
     <g id="text_3">
      <!-- 8 -->
      <g transform="translate(274.053719 266.4)scale(0.1 -0.1)">
       <defs>
        <path id="Quicksand-Regular-38" d="M 2330 2253 
L 2310 2310 
Q 2528 2227 2707 2064 
Q 2886 1901 2995 1680 
Q 3104 1459 3104 1197 
Q 3104 851 2921 569 
Q 2739 288 2425 121 
Q 2112 -45 1728 -45 
Q 1338 -45 1027 121 
Q 717 288 534 569 
Q 352 851 352 1197 
Q 352 1478 464 1699 
Q 576 1920 758 2073 
Q 941 2227 1139 2310 
L 1120 2246 
Q 947 2330 796 2474 
Q 646 2618 550 2819 
Q 454 3021 454 3264 
Q 454 3610 624 3885 
Q 794 4160 1085 4320 
Q 1376 4480 1728 4480 
Q 2080 4480 2365 4320 
Q 2650 4160 2819 3885 
Q 2989 3610 2989 3264 
Q 2989 3014 2893 2816 
Q 2797 2618 2643 2474 
Q 2490 2330 2330 2253 
z
M 851 3264 
Q 851 3008 972 2816 
Q 1094 2624 1292 2515 
Q 1491 2406 1728 2406 
Q 1958 2406 2156 2515 
Q 2355 2624 2473 2816 
Q 2592 3008 2592 3264 
Q 2592 3642 2349 3878 
Q 2106 4115 1728 4115 
Q 1338 4115 1094 3878 
Q 851 3642 851 3264 
z
M 1728 320 
Q 2163 320 2435 569 
Q 2707 819 2707 1197 
Q 2707 1453 2572 1657 
Q 2438 1862 2214 1977 
Q 1990 2093 1728 2093 
Q 1466 2093 1242 1977 
Q 1018 1862 883 1657 
Q 749 1453 749 1197 
Q 749 819 1017 569 
Q 1286 320 1728 320 
z
" transform="scale(0.015625)"/>
       </defs>
       <use xlink:href="#Quicksand-Regular-38"/>
      </g>
     </g>
    </g>
    <g id="xtick_4">
     <g id="line2d_4">
      <g>
       <use xlink:href="#m8e25d363b8" x="350.538843" y="252" style="stroke: #000000; stroke-width: 0.8"/>
      </g>
     </g>
     <g id="text_4">
      <!-- 10 -->
      <g transform="translate(345.713843 266.4)scale(0.1 -0.1)">
       <defs>
        <path id="Quicksand-Regular-31" d="M 1446 0 
Q 1357 0 1299 57 
Q 1242 115 1242 192 
L 1242 4045 
L 1312 3981 
L 461 3411 
Q 410 3373 352 3373 
Q 275 3373 214 3437 
Q 154 3501 154 3578 
Q 154 3680 256 3738 
L 1325 4448 
Q 1363 4474 1404 4480 
Q 1446 4486 1478 4480 
Q 1562 4474 1606 4419 
Q 1651 4365 1651 4288 
L 1651 192 
Q 1651 115 1593 57 
Q 1536 0 1446 0 
z
" transform="scale(0.015625)"/>
        <path id="Quicksand-Regular-30" d="M 1901 -64 
Q 1389 -64 1043 243 
Q 698 550 525 1072 
Q 352 1594 352 2240 
Q 352 2893 525 3414 
Q 698 3936 1043 4240 
Q 1389 4544 1901 4544 
Q 2426 4544 2768 4240 
Q 3110 3936 3283 3414 
Q 3456 2893 3456 2240 
Q 3456 1594 3283 1072 
Q 3110 550 2768 243 
Q 2426 -64 1901 -64 
z
M 1901 333 
Q 2278 333 2531 569 
Q 2784 806 2915 1238 
Q 3046 1670 3046 2240 
Q 3046 2816 2915 3248 
Q 2784 3680 2531 3917 
Q 2278 4154 1901 4154 
Q 1530 4154 1277 3917 
Q 1024 3680 893 3248 
Q 762 2816 762 2240 
Q 762 1670 893 1238 
Q 1024 806 1277 569 
Q 1530 333 1901 333 
z
" transform="scale(0.015625)"/>
       </defs>
       <use xlink:href="#Quicksand-Regular-31"/>
       <use xlink:href="#Quicksand-Regular-30" x="36.999985"/>
      </g>
     </g>
    </g>
    <g id="xtick_5">
     <g id="line2d_5">
      <g>
       <use xlink:href="#m8e25d363b8" x="424.323967" y="252" style="stroke: #000000; stroke-width: 0.8"/>
      </g>
     </g>
     <g id="text_5">
      <!-- 12 -->
      <g transform="translate(419.703654 266.4)scale(0.1 -0.1)">
       <defs>
        <path id="Quicksand-Regular-32" d="M 3034 371 
Q 3110 371 3164 316 
Q 3219 262 3219 186 
Q 3219 102 3164 51 
Q 3110 0 3034 0 
L 634 0 
Q 550 0 489 48 
Q 429 96 429 192 
Q 429 262 480 326 
L 1958 1958 
Q 2310 2342 2486 2665 
Q 2662 2989 2662 3245 
Q 2662 3667 2406 3923 
Q 2150 4179 1715 4179 
Q 1517 4179 1321 4096 
Q 1126 4013 976 3878 
Q 826 3744 742 3571 
Q 704 3507 662 3481 
Q 621 3456 570 3456 
Q 493 3456 435 3504 
Q 378 3552 378 3622 
Q 378 3667 400 3712 
Q 422 3757 467 3814 
Q 582 4013 787 4179 
Q 992 4346 1245 4445 
Q 1498 4544 1741 4544 
Q 2150 4544 2448 4387 
Q 2746 4230 2909 3945 
Q 3072 3661 3072 3270 
Q 3072 2938 2864 2544 
Q 2656 2150 2246 1696 
L 998 294 
L 934 371 
L 3034 371 
z
" transform="scale(0.015625)"/>
       </defs>
       <use xlink:href="#Quicksand-Regular-31"/>
       <use xlink:href="#Quicksand-Regular-32" x="36.999985"/>
      </g>
     </g>
    </g>
    <g id="xtick_6">
     <g id="line2d_6">
      <g>
       <use xlink:href="#m8e25d363b8" x="498.109091" y="252" style="stroke: #000000; stroke-width: 0.8"/>
      </g>
     </g>
     <g id="text_6">
      <!-- 14 -->
      <g transform="translate(493.623935 266.4)scale(0.1 -0.1)">
       <use xlink:href="#Quicksand-Regular-31"/>
       <use xlink:href="#Quicksand-Regular-34" x="36.999985"/>
      </g>
     </g>
    </g>
    <g id="text_7">
     <!-- Number of Nearest Neighbors -->
     <g transform="translate(225.359375 279.8)scale(0.1 -0.1)">
      <defs>
       <path id="Quicksand-Regular-4e" d="M 3878 4480 
Q 3962 4480 4010 4429 
Q 4058 4378 4058 4301 
L 4058 205 
Q 4058 109 3997 54 
Q 3936 0 3859 0 
Q 3821 0 3776 16 
Q 3731 32 3706 64 
L 851 3910 
L 960 3968 
L 960 173 
Q 960 102 909 51 
Q 858 0 781 0 
Q 698 0 650 51 
Q 602 102 602 173 
L 602 4288 
Q 602 4384 659 4432 
Q 717 4480 787 4480 
Q 826 4480 870 4464 
Q 915 4448 941 4410 
L 3763 608 
L 3699 493 
L 3699 4301 
Q 3699 4378 3753 4429 
Q 3808 4480 3878 4480 
z
" transform="scale(0.015625)"/>
       <path id="Quicksand-Regular-75" d="M 2950 3251 
Q 3034 3251 3088 3193 
Q 3142 3136 3142 3059 
L 3142 1254 
Q 3142 621 2784 288 
Q 2426 -45 1818 -45 
Q 1216 -45 861 288 
Q 506 621 506 1254 
L 506 3059 
Q 506 3136 560 3193 
Q 614 3251 698 3251 
Q 781 3251 835 3193 
Q 890 3136 890 3059 
L 890 1254 
Q 890 794 1136 554 
Q 1382 314 1818 314 
Q 2259 314 2508 554 
Q 2758 794 2758 1254 
L 2758 3059 
Q 2758 3136 2809 3193 
Q 2861 3251 2950 3251 
z
" transform="scale(0.015625)"/>
       <path id="Quicksand-Regular-6d" d="M 1978 3296 
Q 2374 3296 2656 3088 
Q 2938 2880 3040 2470 
L 2950 2445 
L 2989 2560 
Q 3072 2752 3267 2921 
Q 3462 3091 3712 3193 
Q 3962 3296 4218 3296 
Q 4621 3296 4867 3123 
Q 5114 2950 5226 2659 
Q 5338 2368 5338 2003 
L 5338 192 
Q 5338 115 5283 57 
Q 5229 0 5146 0 
Q 5062 0 5008 57 
Q 4954 115 4954 192 
L 4954 1984 
Q 4954 2246 4870 2464 
Q 4787 2682 4608 2810 
Q 4429 2938 4128 2938 
Q 3866 2938 3626 2810 
Q 3386 2682 3235 2464 
Q 3085 2246 3085 1984 
L 3085 192 
Q 3085 115 3030 57 
Q 2976 0 2893 0 
Q 2810 0 2755 57 
Q 2701 115 2701 192 
L 2701 2003 
Q 2701 2266 2624 2477 
Q 2547 2688 2374 2813 
Q 2202 2938 1907 2938 
Q 1645 2938 1411 2813 
Q 1178 2688 1034 2477 
Q 890 2266 890 2003 
L 890 192 
Q 890 115 832 57 
Q 774 0 698 0 
Q 608 0 557 57 
Q 506 115 506 192 
L 506 3059 
Q 506 3136 560 3193 
Q 614 3251 698 3251 
Q 781 3251 835 3193 
Q 890 3136 890 3059 
L 890 2464 
L 717 2227 
Q 736 2419 841 2611 
Q 947 2803 1120 2956 
Q 1293 3110 1513 3203 
Q 1734 3296 1978 3296 
z
" transform="scale(0.015625)"/>
       <path id="Quicksand-Regular-62" d="M 2061 3347 
Q 2496 3347 2832 3129 
Q 3168 2912 3366 2531 
Q 3565 2150 3565 1651 
Q 3565 1165 3366 774 
Q 3168 384 2829 160 
Q 2490 -64 2067 -64 
Q 1843 -64 1641 6 
Q 1440 77 1273 195 
Q 1107 314 979 474 
Q 851 634 774 819 
L 890 902 
L 890 179 
Q 890 96 835 41 
Q 781 -13 698 -13 
Q 614 -13 560 41 
Q 506 96 506 179 
L 506 4538 
Q 506 4621 557 4675 
Q 608 4730 698 4730 
Q 781 4730 835 4675 
Q 890 4621 890 4538 
L 890 2394 
L 800 2445 
Q 864 2643 989 2806 
Q 1114 2970 1280 3091 
Q 1446 3213 1644 3280 
Q 1843 3347 2061 3347 
z
M 2029 2989 
Q 1683 2989 1420 2816 
Q 1158 2643 1008 2342 
Q 858 2042 858 1651 
Q 858 1267 1008 956 
Q 1158 646 1420 470 
Q 1683 294 2029 294 
Q 2368 294 2627 473 
Q 2886 653 3040 963 
Q 3194 1274 3194 1651 
Q 3194 2042 3040 2342 
Q 2886 2643 2627 2816 
Q 2368 2989 2029 2989 
z
" transform="scale(0.015625)"/>
       <path id="Quicksand-Regular-65" d="M 1984 -64 
Q 1491 -64 1113 147 
Q 736 358 525 736 
Q 314 1114 314 1619 
Q 314 2163 528 2547 
Q 742 2931 1084 3139 
Q 1427 3347 1811 3347 
Q 2093 3347 2358 3248 
Q 2624 3149 2832 2953 
Q 3040 2758 3165 2476 
Q 3290 2195 3302 1824 
Q 3296 1747 3238 1692 
Q 3181 1638 3104 1638 
L 538 1638 
L 461 1984 
L 2982 1984 
L 2899 1907 
L 2899 2035 
Q 2874 2336 2707 2547 
Q 2541 2758 2304 2867 
Q 2067 2976 1811 2976 
Q 1619 2976 1417 2899 
Q 1216 2822 1053 2659 
Q 890 2496 787 2243 
Q 685 1990 685 1645 
Q 685 1267 838 960 
Q 992 653 1283 473 
Q 1574 294 1978 294 
Q 2202 294 2381 358 
Q 2560 422 2694 528 
Q 2829 634 2918 749 
Q 2989 806 3059 806 
Q 3123 806 3171 755 
Q 3219 704 3219 640 
Q 3219 563 3155 506 
Q 2963 275 2656 105 
Q 2349 -64 1984 -64 
z
" transform="scale(0.015625)"/>
       <path id="Quicksand-Regular-72" d="M 698 0 
Q 608 0 557 57 
Q 506 115 506 192 
L 506 3059 
Q 506 3136 560 3193 
Q 614 3251 698 3251 
Q 781 3251 835 3193 
Q 890 3136 890 3059 
L 890 2099 
L 794 2080 
Q 813 2304 905 2525 
Q 998 2746 1158 2931 
Q 1318 3117 1539 3232 
Q 1760 3347 2035 3347 
Q 2150 3347 2259 3299 
Q 2368 3251 2368 3142 
Q 2368 3046 2317 2995 
Q 2266 2944 2195 2944 
Q 2138 2944 2070 2976 
Q 2003 3008 1894 3008 
Q 1715 3008 1536 2902 
Q 1357 2797 1209 2617 
Q 1062 2438 976 2217 
Q 890 1997 890 1773 
L 890 192 
Q 890 115 832 57 
Q 774 0 698 0 
z
" transform="scale(0.015625)"/>
       <path id="Quicksand-Regular-20" transform="scale(0.015625)"/>
       <path id="Quicksand-Regular-6f" d="M 3552 1638 
Q 3552 1152 3341 765 
Q 3130 378 2765 157 
Q 2400 -64 1933 -64 
Q 1478 -64 1110 157 
Q 742 378 528 765 
Q 314 1152 314 1638 
Q 314 2131 528 2515 
Q 742 2899 1110 3123 
Q 1478 3347 1933 3347 
Q 2400 3347 2765 3123 
Q 3130 2899 3341 2515 
Q 3552 2131 3552 1638 
z
M 3168 1638 
Q 3168 2029 3008 2333 
Q 2848 2637 2569 2813 
Q 2291 2989 1933 2989 
Q 1587 2989 1305 2813 
Q 1024 2637 861 2333 
Q 698 2029 698 1638 
Q 698 1248 861 947 
Q 1024 646 1305 470 
Q 1587 294 1933 294 
Q 2291 294 2569 470 
Q 2848 646 3008 947 
Q 3168 1248 3168 1638 
z
" transform="scale(0.015625)"/>
       <path id="Quicksand-Regular-66" d="M 1690 4710 
Q 1786 4710 1898 4691 
Q 2010 4672 2093 4624 
Q 2176 4576 2176 4480 
Q 2176 4410 2125 4355 
Q 2074 4301 2010 4301 
Q 1946 4301 1850 4336 
Q 1754 4371 1645 4371 
Q 1510 4371 1414 4310 
Q 1318 4250 1267 4138 
Q 1216 4026 1216 3866 
L 1216 192 
Q 1216 115 1161 57 
Q 1107 0 1024 0 
Q 941 0 886 57 
Q 832 115 832 192 
L 832 3866 
Q 832 4275 1072 4492 
Q 1312 4710 1690 4710 
z
M 1933 3206 
Q 2010 3206 2061 3155 
Q 2112 3104 2112 3027 
Q 2112 2950 2061 2899 
Q 2010 2848 1933 2848 
L 365 2848 
Q 294 2848 240 2902 
Q 186 2957 186 3027 
Q 186 3110 240 3158 
Q 294 3206 365 3206 
L 1933 3206 
z
" transform="scale(0.015625)"/>
       <path id="Quicksand-Regular-61" d="M 3187 3270 
Q 3270 3270 3324 3212 
Q 3379 3155 3379 3072 
L 3379 192 
Q 3379 115 3321 57 
Q 3264 0 3187 0 
Q 3104 0 3049 57 
Q 2995 115 2995 192 
L 2995 954 
L 3104 1005 
Q 3104 826 3005 640 
Q 2906 454 2733 294 
Q 2560 134 2326 35 
Q 2093 -64 1824 -64 
Q 1389 -64 1046 160 
Q 704 384 509 774 
Q 314 1165 314 1651 
Q 314 2150 512 2531 
Q 710 2912 1049 3129 
Q 1389 3347 1818 3347 
Q 2093 3347 2333 3251 
Q 2573 3155 2752 2988 
Q 2931 2822 3030 2608 
Q 3130 2394 3130 2163 
L 2995 2259 
L 2995 3072 
Q 2995 3155 3049 3212 
Q 3104 3270 3187 3270 
z
M 1856 294 
Q 2195 294 2457 470 
Q 2720 646 2870 956 
Q 3021 1267 3021 1651 
Q 3021 2029 2870 2329 
Q 2720 2630 2457 2809 
Q 2195 2989 1856 2989 
Q 1523 2989 1257 2816 
Q 992 2643 841 2342 
Q 691 2042 691 1651 
Q 691 1267 841 956 
Q 992 646 1254 470 
Q 1517 294 1856 294 
z
" transform="scale(0.015625)"/>
       <path id="Quicksand-Regular-73" d="M 320 518 
Q 269 595 272 668 
Q 275 742 352 787 
Q 403 832 470 825 
Q 538 819 595 762 
Q 768 538 1014 400 
Q 1261 262 1600 262 
Q 1779 262 1955 323 
Q 2131 384 2246 509 
Q 2362 634 2362 826 
Q 2362 1024 2246 1145 
Q 2131 1267 1948 1337 
Q 1766 1408 1562 1459 
Q 1344 1517 1139 1590 
Q 934 1664 777 1776 
Q 621 1888 525 2048 
Q 429 2208 429 2438 
Q 429 2707 576 2912 
Q 723 3117 976 3232 
Q 1229 3347 1549 3347 
Q 1709 3347 1894 3305 
Q 2080 3264 2259 3168 
Q 2438 3072 2579 2906 
Q 2637 2848 2637 2774 
Q 2637 2701 2573 2643 
Q 2522 2605 2454 2605 
Q 2387 2605 2342 2656 
Q 2189 2829 1977 2918 
Q 1766 3008 1523 3008 
Q 1338 3008 1174 2947 
Q 1011 2886 902 2764 
Q 794 2643 794 2445 
Q 806 2259 924 2144 
Q 1043 2029 1238 1952 
Q 1434 1875 1677 1811 
Q 1882 1760 2070 1689 
Q 2259 1619 2403 1513 
Q 2547 1408 2633 1248 
Q 2720 1088 2720 845 
Q 2720 563 2563 358 
Q 2406 154 2144 45 
Q 1882 -64 1562 -64 
Q 1216 -64 893 70 
Q 570 205 320 518 
z
" transform="scale(0.015625)"/>
       <path id="Quicksand-Regular-74" d="M 294 3258 
L 1786 3258 
Q 1862 3258 1913 3203 
Q 1965 3149 1965 3072 
Q 1965 3002 1913 2950 
Q 1862 2899 1786 2899 
L 294 2899 
Q 218 2899 163 2953 
Q 109 3008 109 3078 
Q 109 3155 163 3206 
Q 218 3258 294 3258 
z
M 954 4160 
Q 1037 4160 1091 4102 
Q 1146 4045 1146 3968 
L 1146 755 
Q 1146 576 1194 486 
Q 1242 397 1318 368 
Q 1395 339 1472 339 
Q 1523 339 1564 355 
Q 1606 371 1658 371 
Q 1715 371 1756 326 
Q 1798 282 1798 211 
Q 1798 122 1696 61 
Q 1594 0 1453 0 
Q 1395 0 1280 9 
Q 1165 19 1043 80 
Q 922 141 842 294 
Q 762 448 762 736 
L 762 3968 
Q 762 4045 816 4102 
Q 870 4160 954 4160 
z
" transform="scale(0.015625)"/>
       <path id="Quicksand-Regular-69" d="M 877 192 
Q 877 115 819 57 
Q 762 0 685 0 
Q 602 0 547 57 
Q 493 115 493 192 
L 493 3136 
Q 493 3213 547 3270 
Q 602 3328 685 3328 
Q 768 3328 822 3270 
Q 877 3213 877 3136 
L 877 192 
z
M 685 3763 
Q 550 3763 483 3824 
Q 416 3885 416 4000 
L 416 4064 
Q 416 4179 489 4240 
Q 563 4301 691 4301 
Q 813 4301 880 4240 
Q 947 4179 947 4064 
L 947 4000 
Q 947 3885 880 3824 
Q 813 3763 685 3763 
z
" transform="scale(0.015625)"/>
       <path id="Quicksand-Regular-67" d="M 1869 3347 
Q 2157 3347 2400 3248 
Q 2643 3149 2825 2992 
Q 3008 2835 3110 2659 
Q 3213 2483 3213 2323 
L 3104 2477 
L 3104 3072 
Q 3104 3155 3158 3212 
Q 3213 3270 3296 3270 
Q 3386 3270 3437 3212 
Q 3488 3155 3488 3072 
L 3488 301 
Q 3488 -211 3277 -563 
Q 3066 -915 2704 -1097 
Q 2342 -1280 1882 -1280 
Q 1658 -1280 1411 -1222 
Q 1165 -1165 989 -1075 
Q 813 -986 794 -890 
Q 742 -832 745 -777 
Q 749 -723 800 -685 
Q 864 -640 934 -675 
Q 1005 -710 1146 -768 
Q 1210 -787 1318 -825 
Q 1427 -864 1577 -893 
Q 1728 -922 1894 -922 
Q 2470 -922 2787 -592 
Q 3104 -262 3104 275 
L 3104 890 
L 3174 870 
Q 3117 640 2985 467 
Q 2854 294 2675 176 
Q 2496 58 2288 -3 
Q 2080 -64 1875 -64 
Q 1434 -64 1082 160 
Q 730 384 522 768 
Q 314 1152 314 1645 
Q 314 2131 522 2518 
Q 730 2906 1078 3126 
Q 1427 3347 1869 3347 
z
M 1914 2989 
Q 1562 2989 1283 2813 
Q 1005 2637 848 2333 
Q 691 2029 691 1645 
Q 691 1261 848 953 
Q 1005 646 1283 470 
Q 1562 294 1914 294 
Q 2266 294 2541 467 
Q 2816 640 2976 944 
Q 3136 1248 3136 1645 
Q 3136 2042 2976 2346 
Q 2816 2650 2541 2819 
Q 2266 2989 1914 2989 
z
" transform="scale(0.015625)"/>
       <path id="Quicksand-Regular-68" d="M 1997 3296 
Q 2400 3296 2649 3123 
Q 2899 2950 3017 2656 
Q 3136 2362 3136 2003 
L 3136 192 
Q 3136 115 3078 57 
Q 3021 0 2944 0 
Q 2854 0 2803 57 
Q 2752 115 2752 192 
L 2752 2003 
Q 2752 2266 2672 2477 
Q 2592 2688 2413 2813 
Q 2234 2938 1933 2938 
Q 1664 2938 1424 2813 
Q 1184 2688 1037 2477 
Q 890 2266 890 2003 
L 890 192 
Q 890 115 832 57 
Q 774 0 698 0 
Q 608 0 557 57 
Q 506 115 506 192 
L 506 4544 
Q 506 4621 560 4678 
Q 614 4736 698 4736 
Q 781 4736 835 4678 
Q 890 4621 890 4544 
L 890 2470 
L 742 2246 
Q 755 2445 867 2633 
Q 979 2822 1158 2972 
Q 1338 3123 1555 3209 
Q 1773 3296 1997 3296 
z
" transform="scale(0.015625)"/>
      </defs>
      <use xlink:href="#Quicksand-Regular-4e"/>
      <use xlink:href="#Quicksand-Regular-75" x="72.799988"/>
      <use xlink:href="#Quicksand-Regular-6d" x="129.699982"/>
      <use xlink:href="#Quicksand-Regular-62" x="220.899963"/>
      <use xlink:href="#Quicksand-Regular-65" x="281.499954"/>
      <use xlink:href="#Quicksand-Regular-72" x="337.999939"/>
      <use xlink:href="#Quicksand-Regular-20" x="376.499924"/>
      <use xlink:href="#Quicksand-Regular-6f" x="403.799911"/>
      <use xlink:href="#Quicksand-Regular-66" x="464.199905"/>
      <use xlink:href="#Quicksand-Regular-20" x="500.19989"/>
      <use xlink:href="#Quicksand-Regular-4e" x="527.499878"/>
      <use xlink:href="#Quicksand-Regular-65" x="600.299866"/>
      <use xlink:href="#Quicksand-Regular-61" x="656.79985"/>
      <use xlink:href="#Quicksand-Regular-72" x="717.399841"/>
      <use xlink:href="#Quicksand-Regular-65" x="755.899826"/>
      <use xlink:href="#Quicksand-Regular-73" x="812.399811"/>
      <use xlink:href="#Quicksand-Regular-74" x="859.299805"/>
      <use xlink:href="#Quicksand-Regular-20" x="893.199799"/>
      <use xlink:href="#Quicksand-Regular-4e" x="920.499786"/>
      <use xlink:href="#Quicksand-Regular-65" x="993.299774"/>
      <use xlink:href="#Quicksand-Regular-69" x="1049.799759"/>
      <use xlink:href="#Quicksand-Regular-67" x="1071.199753"/>
      <use xlink:href="#Quicksand-Regular-68" x="1133.599747"/>
      <use xlink:href="#Quicksand-Regular-62" x="1190.399734"/>
      <use xlink:href="#Quicksand-Regular-6f" x="1250.999725"/>
      <use xlink:href="#Quicksand-Regular-72" x="1311.399719"/>
      <use xlink:href="#Quicksand-Regular-73" x="1349.899704"/>
     </g>
    </g>
   </g>
   <g id="matplotlib.axis_2">
    <g id="ytick_1">
     <g id="line2d_7">
      <path d="M 72 248.441891 
L 518.4 248.441891 
" clip-path="url(#p8fe9d93ac0)" style="fill: none; stroke: #808080; stroke-opacity: 0.4; stroke-width: 0.8; stroke-linecap: square"/>
     </g>
    </g>
    <g id="ytick_2">
     <g id="line2d_8">
      <path d="M 72 216.814255 
L 518.4 216.814255 
" clip-path="url(#p8fe9d93ac0)" style="fill: none; stroke: #808080; stroke-opacity: 0.4; stroke-width: 0.8; stroke-linecap: square"/>
     </g>
    </g>
    <g id="ytick_3">
     <g id="line2d_9">
      <path d="M 72 185.186618 
L 518.4 185.186618 
" clip-path="url(#p8fe9d93ac0)" style="fill: none; stroke: #808080; stroke-opacity: 0.4; stroke-width: 0.8; stroke-linecap: square"/>
     </g>
    </g>
    <g id="ytick_4">
     <g id="line2d_10">
      <path d="M 72 153.558982 
L 518.4 153.558982 
" clip-path="url(#p8fe9d93ac0)" style="fill: none; stroke: #808080; stroke-opacity: 0.4; stroke-width: 0.8; stroke-linecap: square"/>
     </g>
    </g>
    <g id="ytick_5">
     <g id="line2d_11">
      <path d="M 72 121.931345 
L 518.4 121.931345 
" clip-path="url(#p8fe9d93ac0)" style="fill: none; stroke: #808080; stroke-opacity: 0.4; stroke-width: 0.8; stroke-linecap: square"/>
     </g>
    </g>
    <g id="ytick_6">
     <g id="line2d_12">
      <path d="M 72 90.303709 
L 518.4 90.303709 
" clip-path="url(#p8fe9d93ac0)" style="fill: none; stroke: #808080; stroke-opacity: 0.4; stroke-width: 0.8; stroke-linecap: square"/>
     </g>
    </g>
    <g id="ytick_7">
     <g id="line2d_13">
      <path d="M 72 58.676073 
L 518.4 58.676073 
" clip-path="url(#p8fe9d93ac0)" style="fill: none; stroke: #808080; stroke-opacity: 0.4; stroke-width: 0.8; stroke-linecap: square"/>
     </g>
    </g>
   </g>
   <g id="line2d_14">
    <path d="M 92.290909 46.025018 
L 129.183471 44.443636 
L 166.076033 69.745745 
L 202.968595 125.094109 
L 239.861157 117.1872 
L 276.753719 128.256873 
L 313.646281 144.070691 
L 350.538843 164.628655 
L 387.431405 183.605236 
L 424.323967 215.232873 
L 461.216529 223.139782 
L 498.109091 242.116364 
" clip-path="url(#p8fe9d93ac0)" style="fill: none; stroke: #296939; stroke-width: 1.5; stroke-linecap: square"/>
   </g>
   <g id="patch_3">
    <path d="M 72 252 
L 518.4 252 
" style="fill: none; stroke: #000000; stroke-width: 0.8; stroke-linejoin: miter; stroke-linecap: square"/>
   </g>
   <g id="text_8">
    <!-- 93.2% -->
    <g transform="translate(500.337887 246.441891)scale(0.1 -0.1)">
     <defs>
      <path id="Quicksand-Light-39" d="M 1760 4544 
Q 2144 4544 2422 4413 
Q 2701 4282 2877 4061 
Q 3053 3840 3136 3561 
Q 3219 3283 3219 2995 
Q 3219 2656 3129 2294 
Q 3040 1933 2870 1577 
Q 2701 1222 2461 905 
Q 2221 589 1917 336 
Q 1613 83 1261 -64 
Q 1222 -77 1203 -77 
Q 1146 -77 1104 -29 
Q 1062 19 1062 70 
Q 1062 109 1084 137 
Q 1107 166 1152 186 
Q 1542 358 1900 694 
Q 2259 1030 2521 1465 
Q 2784 1901 2867 2355 
L 2995 2470 
Q 2874 2227 2672 2051 
Q 2470 1875 2220 1779 
Q 1971 1683 1690 1683 
Q 1286 1683 992 1894 
Q 698 2106 541 2435 
Q 384 2765 384 3130 
Q 384 3501 560 3821 
Q 736 4141 1046 4342 
Q 1357 4544 1760 4544 
z
M 1773 4288 
Q 1446 4288 1193 4144 
Q 941 4000 797 3737 
Q 653 3475 653 3130 
Q 653 2829 771 2557 
Q 890 2285 1133 2115 
Q 1376 1946 1734 1946 
Q 2125 1946 2397 2112 
Q 2669 2278 2813 2553 
Q 2957 2829 2957 3155 
Q 2957 3450 2819 3706 
Q 2682 3962 2419 4125 
Q 2157 4288 1773 4288 
z
" transform="scale(0.015625)"/>
      <path id="Quicksand-Light-33" d="M 518 576 
Q 544 576 569 566 
Q 595 557 634 512 
Q 774 358 972 281 
Q 1171 205 1421 205 
Q 1773 205 2057 358 
Q 2342 512 2512 787 
Q 2682 1062 2682 1414 
Q 2682 1824 2496 2077 
Q 2310 2330 2028 2448 
Q 1747 2566 1453 2566 
Q 1408 2566 1350 2563 
Q 1293 2560 1245 2553 
Q 1197 2547 1190 2547 
Q 1133 2547 1097 2585 
Q 1062 2624 1062 2688 
Q 1062 2714 1075 2739 
Q 1088 2765 1114 2797 
L 2470 4282 
L 2509 4192 
L 448 4192 
Q 397 4192 358 4230 
Q 320 4269 320 4320 
Q 320 4378 358 4413 
Q 397 4448 448 4448 
L 2662 4448 
Q 2746 4448 2771 4393 
Q 2797 4339 2797 4314 
Q 2797 4288 2787 4265 
Q 2778 4243 2752 4218 
L 1402 2733 
L 1274 2771 
Q 1274 2790 1379 2809 
Q 1485 2829 1549 2829 
Q 1888 2829 2211 2675 
Q 2534 2522 2742 2208 
Q 2950 1894 2950 1414 
Q 2950 973 2739 640 
Q 2528 307 2179 121 
Q 1830 -64 1421 -64 
Q 1146 -64 883 35 
Q 621 134 422 346 
Q 403 365 393 387 
Q 384 410 384 435 
Q 384 486 422 531 
Q 461 576 518 576 
z
" transform="scale(0.015625)"/>
      <path id="Quicksand-Light-2e" d="M 493 0 
Q 410 0 365 57 
Q 320 115 320 198 
L 320 346 
Q 320 435 365 489 
Q 410 544 493 544 
L 518 544 
Q 608 544 649 489 
Q 691 435 691 346 
L 691 198 
Q 691 115 649 57 
Q 608 0 518 0 
L 493 0 
z
" transform="scale(0.015625)"/>
      <path id="Quicksand-Light-32" d="M 3066 256 
Q 3117 256 3155 217 
Q 3194 179 3194 128 
Q 3194 70 3155 35 
Q 3117 0 3066 0 
L 595 0 
Q 538 0 486 29 
Q 435 58 435 134 
Q 435 173 467 218 
L 1971 1894 
Q 2368 2323 2557 2665 
Q 2746 3008 2746 3283 
Q 2746 3738 2464 4013 
Q 2182 4288 1709 4288 
Q 1485 4288 1267 4198 
Q 1050 4109 886 3961 
Q 723 3814 646 3635 
Q 621 3578 592 3555 
Q 563 3533 512 3533 
Q 461 3533 422 3561 
Q 384 3590 384 3635 
Q 384 3661 390 3683 
Q 397 3706 416 3750 
Q 518 3962 726 4141 
Q 934 4320 1200 4432 
Q 1466 4544 1728 4544 
Q 2125 4544 2416 4390 
Q 2707 4237 2867 3961 
Q 3027 3686 3027 3309 
Q 3027 2982 2822 2598 
Q 2618 2214 2182 1741 
L 806 179 
L 749 256 
L 3066 256 
z
" transform="scale(0.015625)"/>
      <path id="Quicksand-Light-25" d="M 1133 2240 
Q 851 2240 672 2400 
Q 493 2560 406 2819 
Q 320 3078 320 3373 
Q 320 3680 406 3945 
Q 493 4211 678 4371 
Q 864 4531 1146 4531 
Q 1427 4531 1609 4371 
Q 1792 4211 1878 3948 
Q 1965 3686 1965 3386 
Q 1965 3085 1875 2822 
Q 1786 2560 1603 2400 
Q 1421 2240 1133 2240 
z
M 1146 2496 
Q 1446 2496 1571 2749 
Q 1696 3002 1696 3373 
Q 1696 3770 1555 4022 
Q 1414 4275 1133 4275 
Q 838 4275 713 4016 
Q 589 3757 589 3386 
Q 589 2995 729 2745 
Q 870 2496 1146 2496 
z
M 3731 -51 
Q 3450 -51 3267 109 
Q 3085 269 2998 528 
Q 2912 787 2912 1082 
Q 2912 1389 3001 1654 
Q 3091 1920 3276 2080 
Q 3462 2240 3744 2240 
Q 4026 2240 4208 2080 
Q 4390 1920 4476 1657 
Q 4563 1395 4563 1094 
Q 4563 794 4473 531 
Q 4384 269 4201 109 
Q 4019 -51 3731 -51 
z
M 3744 205 
Q 4045 205 4169 457 
Q 4294 710 4294 1082 
Q 4294 1478 4153 1731 
Q 4013 1984 3731 1984 
Q 3437 1984 3309 1725 
Q 3181 1466 3181 1094 
Q 3181 704 3325 454 
Q 3469 205 3744 205 
z
M 1011 -19 
Q 954 -19 918 13 
Q 883 45 883 102 
Q 883 141 902 179 
L 3706 4442 
Q 3744 4499 3808 4499 
Q 3866 4499 3901 4467 
Q 3936 4435 3936 4378 
Q 3936 4339 3917 4301 
L 1114 38 
Q 1075 -19 1011 -19 
z
" transform="scale(0.015625)"/>
     </defs>
     <use xlink:href="#Quicksand-Light-39"/>
     <use xlink:href="#Quicksand-Light-33" x="55.499985"/>
     <use xlink:href="#Quicksand-Light-2e" x="107.399979"/>
     <use xlink:href="#Quicksand-Light-32" x="123.199966"/>
     <use xlink:href="#Quicksand-Light-25" x="178.09996"/>
    </g>
   </g>
   <g id="text_9">
    <!-- 93.4% -->
    <g transform="translate(500.769137 214.814255)scale(0.1 -0.1)">
     <defs>
      <path id="Quicksand-Light-34" d="M 2304 0 
Q 2246 0 2211 38 
Q 2176 77 2176 128 
L 2176 4128 
L 2246 4077 
L 416 1613 
L 397 1683 
L 2918 1683 
Q 2970 1683 3008 1648 
Q 3046 1613 3046 1562 
Q 3046 1510 3008 1475 
Q 2970 1440 2918 1440 
L 224 1440 
Q 166 1440 131 1485 
Q 96 1530 96 1574 
Q 96 1626 128 1658 
L 2195 4429 
Q 2227 4467 2262 4473 
Q 2298 4480 2304 4480 
Q 2362 4480 2397 4441 
Q 2432 4403 2432 4352 
L 2432 128 
Q 2432 77 2393 38 
Q 2355 0 2304 0 
z
" transform="scale(0.015625)"/>
     </defs>
     <use xlink:href="#Quicksand-Light-39"/>
     <use xlink:href="#Quicksand-Light-33" x="55.499985"/>
     <use xlink:href="#Quicksand-Light-2e" x="107.399979"/>
     <use xlink:href="#Quicksand-Light-34" x="123.199966"/>
     <use xlink:href="#Quicksand-Light-25" x="173.799957"/>
    </g>
   </g>
   <g id="text_10">
    <!-- 93.6% -->
    <g transform="translate(500.498825 183.186618)scale(0.1 -0.1)">
     <defs>
      <path id="Quicksand-Light-36" d="M 1843 -64 
Q 1459 -64 1180 67 
Q 902 198 726 419 
Q 550 640 467 918 
Q 384 1197 384 1485 
Q 384 1824 473 2195 
Q 563 2566 732 2937 
Q 902 3309 1142 3638 
Q 1382 3968 1686 4230 
Q 1990 4493 2342 4640 
Q 2381 4653 2400 4653 
Q 2458 4653 2499 4617 
Q 2541 4582 2541 4506 
Q 2541 4467 2518 4438 
Q 2496 4410 2451 4390 
Q 2163 4262 1884 4022 
Q 1606 3782 1369 3472 
Q 1133 3162 966 2816 
Q 800 2470 736 2125 
L 608 2010 
Q 730 2253 931 2432 
Q 1133 2611 1385 2710 
Q 1638 2810 1914 2810 
Q 2221 2810 2461 2685 
Q 2701 2560 2870 2352 
Q 3040 2144 3129 1885 
Q 3219 1626 3219 1350 
Q 3219 986 3043 662 
Q 2867 339 2556 137 
Q 2246 -64 1843 -64 
z
M 1830 192 
Q 2157 192 2409 339 
Q 2662 486 2806 745 
Q 2950 1005 2950 1350 
Q 2950 1658 2832 1930 
Q 2714 2202 2474 2374 
Q 2234 2547 1869 2547 
Q 1478 2547 1206 2377 
Q 934 2208 790 1929 
Q 646 1651 646 1325 
Q 646 1037 784 777 
Q 922 518 1187 355 
Q 1453 192 1830 192 
z
" transform="scale(0.015625)"/>
     </defs>
     <use xlink:href="#Quicksand-Light-39"/>
     <use xlink:href="#Quicksand-Light-33" x="55.499985"/>
     <use xlink:href="#Quicksand-Light-2e" x="107.399979"/>
     <use xlink:href="#Quicksand-Light-36" x="123.199966"/>
     <use xlink:href="#Quicksand-Light-25" x="176.499954"/>
    </g>
   </g>
   <g id="text_11">
    <!-- 93.8% -->
    <g transform="translate(500.4582 151.558982)scale(0.1 -0.1)">
     <defs>
      <path id="Quicksand-Light-38" d="M 2278 2246 
L 2259 2272 
Q 2470 2195 2649 2035 
Q 2829 1875 2941 1651 
Q 3053 1427 3053 1146 
Q 3053 813 2877 537 
Q 2701 262 2397 99 
Q 2093 -64 1715 -64 
Q 1338 -64 1037 99 
Q 736 262 560 537 
Q 384 813 384 1146 
Q 384 1427 493 1648 
Q 602 1869 781 2025 
Q 960 2182 1165 2266 
L 1152 2240 
Q 979 2323 828 2476 
Q 678 2630 582 2838 
Q 486 3046 486 3290 
Q 486 3629 649 3897 
Q 813 4166 1094 4323 
Q 1376 4480 1715 4480 
Q 2054 4480 2332 4323 
Q 2611 4166 2774 3897 
Q 2938 3629 2938 3290 
Q 2938 3046 2845 2841 
Q 2752 2637 2601 2483 
Q 2451 2330 2278 2246 
z
M 755 3290 
Q 755 3008 889 2797 
Q 1024 2586 1245 2467 
Q 1466 2349 1715 2349 
Q 1965 2349 2182 2467 
Q 2400 2586 2534 2797 
Q 2669 3008 2669 3290 
Q 2669 3706 2403 3965 
Q 2138 4224 1715 4224 
Q 1286 4224 1020 3965 
Q 755 3706 755 3290 
z
M 1715 192 
Q 2195 192 2489 461 
Q 2784 730 2784 1146 
Q 2784 1427 2637 1648 
Q 2490 1869 2246 1993 
Q 2003 2118 1715 2118 
Q 1434 2118 1190 1993 
Q 947 1869 800 1648 
Q 653 1427 653 1146 
Q 653 730 944 461 
Q 1235 192 1715 192 
z
" transform="scale(0.015625)"/>
     </defs>
     <use xlink:href="#Quicksand-Light-39"/>
     <use xlink:href="#Quicksand-Light-33" x="55.499985"/>
     <use xlink:href="#Quicksand-Light-2e" x="107.399979"/>
     <use xlink:href="#Quicksand-Light-38" x="123.199966"/>
     <use xlink:href="#Quicksand-Light-25" x="176.899963"/>
    </g>
   </g>
   <g id="text_12">
    <!-- 94.0% -->
    <g transform="translate(500.080075 119.931345)scale(0.1 -0.1)">
     <defs>
      <path id="Quicksand-Light-30" d="M 1882 -64 
Q 1376 -64 1043 246 
Q 710 557 547 1081 
Q 384 1606 384 2240 
Q 384 2880 547 3401 
Q 710 3923 1043 4233 
Q 1376 4544 1882 4544 
Q 2394 4544 2723 4233 
Q 3053 3923 3216 3401 
Q 3379 2880 3379 2240 
Q 3379 1606 3216 1081 
Q 3053 557 2723 246 
Q 2394 -64 1882 -64 
z
M 1882 205 
Q 2291 205 2563 467 
Q 2835 730 2972 1190 
Q 3110 1651 3110 2240 
Q 3110 2835 2972 3296 
Q 2835 3757 2563 4016 
Q 2291 4275 1882 4275 
Q 1472 4275 1200 4016 
Q 928 3757 790 3296 
Q 653 2835 653 2240 
Q 653 1651 790 1190 
Q 928 730 1200 467 
Q 1472 205 1882 205 
z
" transform="scale(0.015625)"/>
     </defs>
     <use xlink:href="#Quicksand-Light-39"/>
     <use xlink:href="#Quicksand-Light-34" x="55.499985"/>
     <use xlink:href="#Quicksand-Light-2e" x="106.099976"/>
     <use xlink:href="#Quicksand-Light-30" x="121.899963"/>
     <use xlink:href="#Quicksand-Light-25" x="180.699951"/>
    </g>
   </g>
   <g id="text_13">
    <!-- 94.2% -->
    <g transform="translate(500.469137 88.303709)scale(0.1 -0.1)">
     <use xlink:href="#Quicksand-Light-39"/>
     <use xlink:href="#Quicksand-Light-34" x="55.499985"/>
     <use xlink:href="#Quicksand-Light-2e" x="106.099976"/>
     <use xlink:href="#Quicksand-Light-32" x="121.899963"/>
     <use xlink:href="#Quicksand-Light-25" x="176.799957"/>
    </g>
   </g>
   <g id="text_14">
    <!-- 94.4% -->
    <g transform="translate(500.900387 56.676073)scale(0.1 -0.1)">
     <use xlink:href="#Quicksand-Light-39"/>
     <use xlink:href="#Quicksand-Light-34" x="55.499985"/>
     <use xlink:href="#Quicksand-Light-2e" x="106.099976"/>
     <use xlink:href="#Quicksand-Light-34" x="121.899963"/>
     <use xlink:href="#Quicksand-Light-25" x="172.499954"/>
    </g>
   </g>
   <g id="text_15">
    <!-- Testing Accuracy of Nearest Neighbors Tract Search -->
    <g transform="translate(148.799062 28.56)scale(0.12 -0.12)">
     <defs>
      <path id="Quicksand-Regular-54" d="M 1933 0 
Q 1843 0 1788 57 
Q 1734 115 1734 192 
L 1734 4269 
L 2131 4269 
L 2131 192 
Q 2131 115 2073 57 
Q 2016 0 1933 0 
z
M 410 4115 
Q 333 4115 275 4166 
Q 218 4218 218 4301 
Q 218 4378 275 4429 
Q 333 4480 410 4480 
L 3456 4480 
Q 3533 4480 3590 4429 
Q 3648 4378 3648 4294 
Q 3648 4211 3590 4163 
Q 3533 4115 3456 4115 
L 410 4115 
z
" transform="scale(0.015625)"/>
      <path id="Quicksand-Regular-6e" d="M 2048 3347 
Q 2470 3347 2723 3177 
Q 2976 3008 3088 2717 
Q 3200 2426 3200 2074 
L 3200 192 
Q 3200 115 3142 57 
Q 3085 0 3008 0 
Q 2918 0 2867 57 
Q 2816 115 2816 192 
L 2816 2054 
Q 2816 2310 2733 2521 
Q 2650 2733 2461 2861 
Q 2272 2989 1965 2989 
Q 1690 2989 1443 2861 
Q 1197 2733 1043 2521 
Q 890 2310 890 2054 
L 890 192 
Q 890 115 832 57 
Q 774 0 698 0 
Q 608 0 557 57 
Q 506 115 506 192 
L 506 3059 
Q 506 3136 560 3193 
Q 614 3251 698 3251 
Q 781 3251 835 3193 
Q 890 3136 890 3059 
L 890 2522 
L 742 2291 
Q 755 2496 873 2685 
Q 992 2874 1177 3024 
Q 1363 3174 1590 3260 
Q 1818 3347 2048 3347 
z
" transform="scale(0.015625)"/>
      <path id="Quicksand-Regular-41" d="M 2099 3987 
L 544 122 
Q 518 58 473 26 
Q 429 -6 371 -6 
Q 282 -6 237 42 
Q 192 90 186 160 
Q 179 192 192 237 
L 1882 4371 
Q 1914 4442 1962 4470 
Q 2010 4499 2074 4499 
Q 2138 4499 2186 4464 
Q 2234 4429 2259 4371 
L 3942 256 
Q 3955 218 3955 179 
Q 3955 90 3897 42 
Q 3840 -6 3763 -6 
Q 3699 -6 3651 29 
Q 3603 64 3578 122 
L 1984 4013 
L 2099 3987 
z
M 915 1293 
L 1075 1670 
L 3059 1670 
L 3136 1293 
L 915 1293 
z
" transform="scale(0.015625)"/>
      <path id="Quicksand-Regular-63" d="M 1946 3347 
Q 2253 3347 2509 3280 
Q 2765 3213 2921 3097 
Q 3078 2982 3078 2848 
Q 3078 2784 3033 2723 
Q 2989 2662 2912 2662 
Q 2835 2662 2787 2700 
Q 2739 2739 2691 2790 
Q 2643 2842 2554 2886 
Q 2470 2925 2316 2957 
Q 2163 2989 1965 2989 
Q 1606 2989 1318 2809 
Q 1030 2630 864 2326 
Q 698 2022 698 1645 
Q 698 1261 858 953 
Q 1018 646 1299 470 
Q 1581 294 1958 294 
Q 2214 294 2355 339 
Q 2496 384 2598 442 
Q 2720 512 2774 579 
Q 2829 646 2918 646 
Q 3002 646 3043 598 
Q 3085 550 3085 474 
Q 3085 371 2934 246 
Q 2784 122 2521 29 
Q 2259 -64 1920 -64 
Q 1440 -64 1078 160 
Q 717 384 515 771 
Q 314 1158 314 1645 
Q 314 2112 518 2496 
Q 723 2880 1091 3113 
Q 1459 3347 1946 3347 
z
" transform="scale(0.015625)"/>
      <path id="Quicksand-Regular-79" d="M 2944 3328 
Q 3027 3328 3081 3270 
Q 3136 3213 3136 3136 
L 3136 314 
Q 3136 -205 2931 -560 
Q 2726 -915 2380 -1097 
Q 2035 -1280 1594 -1280 
Q 1318 -1280 1084 -1219 
Q 851 -1158 704 -1062 
Q 627 -1018 588 -954 
Q 550 -890 582 -819 
Q 614 -730 681 -701 
Q 749 -672 819 -704 
Q 928 -762 1133 -845 
Q 1338 -928 1600 -928 
Q 1952 -928 2211 -781 
Q 2470 -634 2611 -355 
Q 2752 -77 2752 307 
L 2752 768 
L 2797 614 
Q 2701 416 2525 262 
Q 2349 109 2121 22 
Q 1894 -64 1638 -64 
Q 1254 -64 1001 93 
Q 749 250 627 525 
Q 506 800 506 1171 
L 506 3136 
Q 506 3213 557 3270 
Q 608 3328 698 3328 
Q 781 3328 835 3270 
Q 890 3213 890 3136 
L 890 1229 
Q 890 781 1085 537 
Q 1280 294 1722 294 
Q 1997 294 2227 425 
Q 2458 557 2605 771 
Q 2752 986 2752 1229 
L 2752 3136 
Q 2752 3213 2806 3270 
Q 2861 3328 2944 3328 
z
" transform="scale(0.015625)"/>
      <path id="Quicksand-Regular-53" d="M 1837 -64 
Q 1350 -70 992 90 
Q 634 250 307 570 
Q 275 595 252 633 
Q 230 672 230 723 
Q 230 800 291 864 
Q 352 928 429 928 
Q 506 928 570 864 
Q 819 595 1136 454 
Q 1453 314 1818 314 
Q 2125 314 2365 410 
Q 2605 506 2745 685 
Q 2886 864 2886 1101 
Q 2886 1395 2726 1577 
Q 2566 1760 2304 1878 
Q 2042 1997 1722 2093 
Q 1459 2170 1222 2269 
Q 986 2368 800 2512 
Q 614 2656 512 2867 
Q 410 3078 410 3379 
Q 410 3718 589 3980 
Q 768 4243 1097 4393 
Q 1427 4544 1862 4544 
Q 2240 4544 2589 4416 
Q 2938 4288 3142 4038 
Q 3238 3936 3238 3853 
Q 3238 3789 3174 3725 
Q 3110 3661 3034 3661 
Q 2970 3661 2925 3706 
Q 2816 3840 2649 3945 
Q 2483 4051 2281 4108 
Q 2080 4166 1862 4166 
Q 1562 4166 1322 4073 
Q 1082 3981 944 3808 
Q 806 3635 806 3392 
Q 806 3123 960 2950 
Q 1114 2778 1363 2666 
Q 1613 2554 1894 2458 
Q 2170 2381 2422 2281 
Q 2675 2182 2870 2035 
Q 3066 1888 3178 1664 
Q 3290 1440 3290 1101 
Q 3290 774 3104 512 
Q 2918 250 2595 96 
Q 2272 -58 1837 -64 
z
" transform="scale(0.015625)"/>
     </defs>
     <use xlink:href="#Quicksand-Regular-54"/>
     <use xlink:href="#Quicksand-Regular-65" x="60.399994"/>
     <use xlink:href="#Quicksand-Regular-73" x="116.899979"/>
     <use xlink:href="#Quicksand-Regular-74" x="163.799973"/>
     <use xlink:href="#Quicksand-Regular-69" x="197.699966"/>
     <use xlink:href="#Quicksand-Regular-6e" x="219.09996"/>
     <use xlink:href="#Quicksand-Regular-67" x="276.899948"/>
     <use xlink:href="#Quicksand-Regular-20" x="339.299942"/>
     <use xlink:href="#Quicksand-Regular-41" x="366.59993"/>
     <use xlink:href="#Quicksand-Regular-63" x="431.299927"/>
     <use xlink:href="#Quicksand-Regular-63" x="483.099915"/>
     <use xlink:href="#Quicksand-Regular-75" x="534.899902"/>
     <use xlink:href="#Quicksand-Regular-72" x="591.799896"/>
     <use xlink:href="#Quicksand-Regular-61" x="630.299881"/>
     <use xlink:href="#Quicksand-Regular-63" x="690.899872"/>
     <use xlink:href="#Quicksand-Regular-79" x="742.69986"/>
     <use xlink:href="#Quicksand-Regular-20" x="799.499847"/>
     <use xlink:href="#Quicksand-Regular-6f" x="826.799835"/>
     <use xlink:href="#Quicksand-Regular-66" x="887.199829"/>
     <use xlink:href="#Quicksand-Regular-20" x="923.199814"/>
     <use xlink:href="#Quicksand-Regular-4e" x="950.499802"/>
     <use xlink:href="#Quicksand-Regular-65" x="1023.299789"/>
     <use xlink:href="#Quicksand-Regular-61" x="1079.799774"/>
     <use xlink:href="#Quicksand-Regular-72" x="1140.399765"/>
     <use xlink:href="#Quicksand-Regular-65" x="1178.89975"/>
     <use xlink:href="#Quicksand-Regular-73" x="1235.399734"/>
     <use xlink:href="#Quicksand-Regular-74" x="1282.299728"/>
     <use xlink:href="#Quicksand-Regular-20" x="1316.199722"/>
     <use xlink:href="#Quicksand-Regular-4e" x="1343.49971"/>
     <use xlink:href="#Quicksand-Regular-65" x="1416.299698"/>
     <use xlink:href="#Quicksand-Regular-69" x="1472.799683"/>
     <use xlink:href="#Quicksand-Regular-67" x="1494.199677"/>
     <use xlink:href="#Quicksand-Regular-68" x="1556.59967"/>
     <use xlink:href="#Quicksand-Regular-62" x="1613.399658"/>
     <use xlink:href="#Quicksand-Regular-6f" x="1673.999649"/>
     <use xlink:href="#Quicksand-Regular-72" x="1734.399643"/>
     <use xlink:href="#Quicksand-Regular-73" x="1772.899628"/>
     <use xlink:href="#Quicksand-Regular-20" x="1819.799622"/>
     <use xlink:href="#Quicksand-Regular-54" x="1847.099609"/>
     <use xlink:href="#Quicksand-Regular-72" x="1907.499603"/>
     <use xlink:href="#Quicksand-Regular-61" x="1945.999588"/>
     <use xlink:href="#Quicksand-Regular-63" x="2006.599579"/>
     <use xlink:href="#Quicksand-Regular-74" x="2058.399567"/>
     <use xlink:href="#Quicksand-Regular-20" x="2092.299561"/>
     <use xlink:href="#Quicksand-Regular-53" x="2119.599548"/>
     <use xlink:href="#Quicksand-Regular-65" x="2175.799545"/>
     <use xlink:href="#Quicksand-Regular-61" x="2232.29953"/>
     <use xlink:href="#Quicksand-Regular-72" x="2292.899521"/>
     <use xlink:href="#Quicksand-Regular-63" x="2331.399506"/>
     <use xlink:href="#Quicksand-Regular-68" x="2383.199493"/>
    </g>
   </g>
  </g>
 </g>
 <defs>
  <clipPath id="p8fe9d93ac0">
   <rect x="72" y="34.56" width="446.4" height="217.44"/>
  </clipPath>
 </defs>
</svg>
