<?xml version="1.0" encoding="utf-8" standalone="no"?>
<!DOCTYPE svg PUBLIC "-//W3C//DTD SVG 1.1//EN"
  "http://www.w3.org/Graphics/SVG/1.1/DTD/svg11.dtd">
<svg xmlns:xlink="http://www.w3.org/1999/xlink" width="576pt" height="288pt" viewBox="0 0 576 288" xmlns="http://www.w3.org/2000/svg" version="1.1">
 <metadata>
  <rdf:RDF xmlns:dc="http://purl.org/dc/elements/1.1/" xmlns:cc="http://creativecommons.org/ns#" xmlns:rdf="http://www.w3.org/1999/02/22-rdf-syntax-ns#">
   <cc:Work>
    <dc:type rdf:resource="http://purl.org/dc/dcmitype/StillImage"/>
    <dc:date>2022-08-14T15:21:18.047636</dc:date>
    <dc:format>image/svg+xml</dc:format>
    <dc:creator>
     <cc:Agent>
      <dc:title>Matplotlib v3.5.2, https://matplotlib.org/</dc:title>
     </cc:Agent>
    </dc:creator>
   </cc:Work>
  </rdf:RDF>
 </metadata>
 <defs>
  <style type="text/css">*{stroke-linejoin: round; stroke-linecap: butt}</style>
 </defs>
 <g id="figure_1">
  <g id="patch_1">
   <path d="M 0 288 
L 576 288 
L 576 0 
L 0 0 
L 0 288 
z
" style="fill: none"/>
  </g>
  <g id="axes_1">
   <g id="patch_2">
    <path d="M 72 252 
L 518.4 252 
L 518.4 34.56 
L 72 34.56 
z
" style="fill: #ffffff"/>
   </g>
   <g id="matplotlib.axis_1">
    <g id="xtick_1">
     <g id="line2d_1">
      <defs>
       <path id="mc85c762319" d="M 0 0 
L 0 3.5 
" style="stroke: #000000; stroke-width: 0.8"/>
      </defs>
      <g>
       <use xlink:href="#mc85c762319" x="92.290909" y="252" style="stroke: #000000; stroke-width: 0.8"/>
      </g>
     </g>
     <g id="text_1">
      <!-- 0 -->
      <g transform="translate(89.315909 266.4)scale(0.1 -0.1)">
       <defs>
        <path id="Quicksand-Regular-30" d="M 1901 -64 
Q 1389 -64 1043 243 
Q 698 550 525 1072 
Q 352 1594 352 2240 
Q 352 2893 525 3414 
Q 698 3936 1043 4240 
Q 1389 4544 1901 4544 
Q 2426 4544 2768 4240 
Q 3110 3936 3283 3414 
Q 3456 2893 3456 2240 
Q 3456 1594 3283 1072 
Q 3110 550 2768 243 
Q 2426 -64 1901 -64 
z
M 1901 333 
Q 2278 333 2531 569 
Q 2784 806 2915 1238 
Q 3046 1670 3046 2240 
Q 3046 2816 2915 3248 
Q 2784 3680 2531 3917 
Q 2278 4154 1901 4154 
Q 1530 4154 1277 3917 
Q 1024 3680 893 3248 
Q 762 2816 762 2240 
Q 762 1670 893 1238 
Q 1024 806 1277 569 
Q 1530 333 1901 333 
z
" transform="scale(0.015625)"/>
       </defs>
       <use xlink:href="#Quicksand-Regular-30"/>
      </g>
     </g>
    </g>
    <g id="xtick_2">
     <g id="line2d_2">
      <g>
       <use xlink:href="#mc85c762319" x="153.3162" y="252" style="stroke: #000000; stroke-width: 0.8"/>
      </g>
     </g>
     <g id="text_2">
      <!-- 20 -->
      <g transform="translate(147.570887 266.4)scale(0.1 -0.1)">
       <defs>
        <path id="Quicksand-Regular-32" d="M 3034 371 
Q 3110 371 3164 316 
Q 3219 262 3219 186 
Q 3219 102 3164 51 
Q 3110 0 3034 0 
L 634 0 
Q 550 0 489 48 
Q 429 96 429 192 
Q 429 262 480 326 
L 1958 1958 
Q 2310 2342 2486 2665 
Q 2662 2989 2662 3245 
Q 2662 3667 2406 3923 
Q 2150 4179 1715 4179 
Q 1517 4179 1321 4096 
Q 1126 4013 976 3878 
Q 826 3744 742 3571 
Q 704 3507 662 3481 
Q 621 3456 570 3456 
Q 493 3456 435 3504 
Q 378 3552 378 3622 
Q 378 3667 400 3712 
Q 422 3757 467 3814 
Q 582 4013 787 4179 
Q 992 4346 1245 4445 
Q 1498 4544 1741 4544 
Q 2150 4544 2448 4387 
Q 2746 4230 2909 3945 
Q 3072 3661 3072 3270 
Q 3072 2938 2864 2544 
Q 2656 2150 2246 1696 
L 998 294 
L 934 371 
L 3034 371 
z
" transform="scale(0.015625)"/>
       </defs>
       <use xlink:href="#Quicksand-Regular-32"/>
       <use xlink:href="#Quicksand-Regular-30" x="55.399994"/>
      </g>
     </g>
    </g>
    <g id="xtick_3">
     <g id="line2d_3">
      <g>
       <use xlink:href="#mc85c762319" x="214.34149" y="252" style="stroke: #000000; stroke-width: 0.8"/>
      </g>
     </g>
     <g id="text_3">
      <!-- 40 -->
      <g transform="translate(208.731334 266.4)scale(0.1 -0.1)">
       <defs>
        <path id="Quicksand-Regular-34" d="M 2349 0 
Q 2266 0 2214 57 
Q 2163 115 2163 192 
L 2163 3949 
L 2246 3898 
L 563 1670 
L 544 1741 
L 3002 1741 
Q 3078 1741 3132 1689 
Q 3187 1638 3187 1562 
Q 3187 1485 3132 1433 
Q 3078 1382 3002 1382 
L 282 1382 
Q 205 1382 147 1443 
Q 90 1504 90 1581 
Q 90 1651 134 1709 
L 2195 4403 
Q 2227 4448 2275 4464 
Q 2323 4480 2355 4480 
Q 2438 4480 2492 4422 
Q 2547 4365 2547 4288 
L 2547 192 
Q 2547 115 2489 57 
Q 2432 0 2349 0 
z
" transform="scale(0.015625)"/>
       </defs>
       <use xlink:href="#Quicksand-Regular-34"/>
       <use xlink:href="#Quicksand-Regular-30" x="52.699997"/>
      </g>
     </g>
    </g>
    <g id="xtick_4">
     <g id="line2d_4">
      <g>
       <use xlink:href="#mc85c762319" x="275.366781" y="252" style="stroke: #000000; stroke-width: 0.8"/>
      </g>
     </g>
     <g id="text_4">
      <!-- 60 -->
      <g transform="translate(269.701937 266.4)scale(0.1 -0.1)">
       <defs>
        <path id="Quicksand-Regular-36" d="M 1837 -64 
Q 1466 -64 1187 70 
Q 909 205 726 432 
Q 544 659 457 947 
Q 371 1235 371 1536 
Q 371 1843 448 2198 
Q 525 2554 685 2918 
Q 845 3283 1078 3609 
Q 1312 3936 1622 4195 
Q 1933 4454 2323 4602 
Q 2368 4614 2400 4614 
Q 2483 4614 2544 4569 
Q 2605 4525 2605 4416 
Q 2605 4352 2563 4304 
Q 2522 4256 2451 4230 
Q 2182 4115 1920 3904 
Q 1658 3693 1434 3417 
Q 1210 3142 1053 2825 
Q 896 2509 832 2182 
L 691 2099 
Q 806 2310 988 2473 
Q 1171 2637 1408 2736 
Q 1645 2835 1920 2835 
Q 2208 2835 2451 2713 
Q 2694 2592 2870 2384 
Q 3046 2176 3145 1913 
Q 3245 1651 3245 1370 
Q 3245 992 3062 665 
Q 2880 339 2563 137 
Q 2246 -64 1837 -64 
z
M 1830 307 
Q 2125 307 2355 441 
Q 2586 576 2717 816 
Q 2848 1056 2848 1370 
Q 2848 1658 2736 1904 
Q 2624 2150 2403 2307 
Q 2182 2464 1856 2464 
Q 1517 2464 1270 2310 
Q 1024 2157 893 1904 
Q 762 1651 762 1350 
Q 762 1082 890 842 
Q 1018 602 1258 454 
Q 1498 307 1830 307 
z
" transform="scale(0.015625)"/>
       </defs>
       <use xlink:href="#Quicksand-Regular-36"/>
       <use xlink:href="#Quicksand-Regular-30" x="53.799988"/>
      </g>
     </g>
    </g>
    <g id="xtick_5">
     <g id="line2d_5">
      <g>
       <use xlink:href="#mc85c762319" x="336.392071" y="252" style="stroke: #000000; stroke-width: 0.8"/>
      </g>
     </g>
     <g id="text_5">
      <!-- 80 -->
      <g transform="translate(330.717071 266.4)scale(0.1 -0.1)">
       <defs>
        <path id="Quicksand-Regular-38" d="M 2330 2253 
L 2310 2310 
Q 2528 2227 2707 2064 
Q 2886 1901 2995 1680 
Q 3104 1459 3104 1197 
Q 3104 851 2921 569 
Q 2739 288 2425 121 
Q 2112 -45 1728 -45 
Q 1338 -45 1027 121 
Q 717 288 534 569 
Q 352 851 352 1197 
Q 352 1478 464 1699 
Q 576 1920 758 2073 
Q 941 2227 1139 2310 
L 1120 2246 
Q 947 2330 796 2474 
Q 646 2618 550 2819 
Q 454 3021 454 3264 
Q 454 3610 624 3885 
Q 794 4160 1085 4320 
Q 1376 4480 1728 4480 
Q 2080 4480 2365 4320 
Q 2650 4160 2819 3885 
Q 2989 3610 2989 3264 
Q 2989 3014 2893 2816 
Q 2797 2618 2643 2474 
Q 2490 2330 2330 2253 
z
M 851 3264 
Q 851 3008 972 2816 
Q 1094 2624 1292 2515 
Q 1491 2406 1728 2406 
Q 1958 2406 2156 2515 
Q 2355 2624 2473 2816 
Q 2592 3008 2592 3264 
Q 2592 3642 2349 3878 
Q 2106 4115 1728 4115 
Q 1338 4115 1094 3878 
Q 851 3642 851 3264 
z
M 1728 320 
Q 2163 320 2435 569 
Q 2707 819 2707 1197 
Q 2707 1453 2572 1657 
Q 2438 1862 2214 1977 
Q 1990 2093 1728 2093 
Q 1466 2093 1242 1977 
Q 1018 1862 883 1657 
Q 749 1453 749 1197 
Q 749 819 1017 569 
Q 1286 320 1728 320 
z
" transform="scale(0.015625)"/>
       </defs>
       <use xlink:href="#Quicksand-Regular-38"/>
       <use xlink:href="#Quicksand-Regular-30" x="53.999985"/>
      </g>
     </g>
    </g>
    <g id="xtick_6">
     <g id="line2d_6">
      <g>
       <use xlink:href="#mc85c762319" x="397.417362" y="252" style="stroke: #000000; stroke-width: 0.8"/>
      </g>
     </g>
     <g id="text_6">
      <!-- 100 -->
      <g transform="translate(389.617362 266.4)scale(0.1 -0.1)">
       <defs>
        <path id="Quicksand-Regular-31" d="M 1446 0 
Q 1357 0 1299 57 
Q 1242 115 1242 192 
L 1242 4045 
L 1312 3981 
L 461 3411 
Q 410 3373 352 3373 
Q 275 3373 214 3437 
Q 154 3501 154 3578 
Q 154 3680 256 3738 
L 1325 4448 
Q 1363 4474 1404 4480 
Q 1446 4486 1478 4480 
Q 1562 4474 1606 4419 
Q 1651 4365 1651 4288 
L 1651 192 
Q 1651 115 1593 57 
Q 1536 0 1446 0 
z
" transform="scale(0.015625)"/>
       </defs>
       <use xlink:href="#Quicksand-Regular-31"/>
       <use xlink:href="#Quicksand-Regular-30" x="36.999985"/>
       <use xlink:href="#Quicksand-Regular-30" x="96.499969"/>
      </g>
     </g>
    </g>
    <g id="xtick_7">
     <g id="line2d_7">
      <g>
       <use xlink:href="#mc85c762319" x="458.442652" y="252" style="stroke: #000000; stroke-width: 0.8"/>
      </g>
     </g>
     <g id="text_7">
      <!-- 120 -->
      <g transform="translate(450.84734 266.4)scale(0.1 -0.1)">
       <use xlink:href="#Quicksand-Regular-31"/>
       <use xlink:href="#Quicksand-Regular-32" x="36.999985"/>
       <use xlink:href="#Quicksand-Regular-30" x="92.399979"/>
      </g>
     </g>
    </g>
    <g id="text_8">
     <!-- Number of Null Values -->
     <g transform="translate(243.154687 279.8)scale(0.1 -0.1)">
      <defs>
       <path id="Quicksand-Regular-4e" d="M 3878 4480 
Q 3962 4480 4010 4429 
Q 4058 4378 4058 4301 
L 4058 205 
Q 4058 109 3997 54 
Q 3936 0 3859 0 
Q 3821 0 3776 16 
Q 3731 32 3706 64 
L 851 3910 
L 960 3968 
L 960 173 
Q 960 102 909 51 
Q 858 0 781 0 
Q 698 0 650 51 
Q 602 102 602 173 
L 602 4288 
Q 602 4384 659 4432 
Q 717 4480 787 4480 
Q 826 4480 870 4464 
Q 915 4448 941 4410 
L 3763 608 
L 3699 493 
L 3699 4301 
Q 3699 4378 3753 4429 
Q 3808 4480 3878 4480 
z
" transform="scale(0.015625)"/>
       <path id="Quicksand-Regular-75" d="M 2950 3251 
Q 3034 3251 3088 3193 
Q 3142 3136 3142 3059 
L 3142 1254 
Q 3142 621 2784 288 
Q 2426 -45 1818 -45 
Q 1216 -45 861 288 
Q 506 621 506 1254 
L 506 3059 
Q 506 3136 560 3193 
Q 614 3251 698 3251 
Q 781 3251 835 3193 
Q 890 3136 890 3059 
L 890 1254 
Q 890 794 1136 554 
Q 1382 314 1818 314 
Q 2259 314 2508 554 
Q 2758 794 2758 1254 
L 2758 3059 
Q 2758 3136 2809 3193 
Q 2861 3251 2950 3251 
z
" transform="scale(0.015625)"/>
       <path id="Quicksand-Regular-6d" d="M 1978 3296 
Q 2374 3296 2656 3088 
Q 2938 2880 3040 2470 
L 2950 2445 
L 2989 2560 
Q 3072 2752 3267 2921 
Q 3462 3091 3712 3193 
Q 3962 3296 4218 3296 
Q 4621 3296 4867 3123 
Q 5114 2950 5226 2659 
Q 5338 2368 5338 2003 
L 5338 192 
Q 5338 115 5283 57 
Q 5229 0 5146 0 
Q 5062 0 5008 57 
Q 4954 115 4954 192 
L 4954 1984 
Q 4954 2246 4870 2464 
Q 4787 2682 4608 2810 
Q 4429 2938 4128 2938 
Q 3866 2938 3626 2810 
Q 3386 2682 3235 2464 
Q 3085 2246 3085 1984 
L 3085 192 
Q 3085 115 3030 57 
Q 2976 0 2893 0 
Q 2810 0 2755 57 
Q 2701 115 2701 192 
L 2701 2003 
Q 2701 2266 2624 2477 
Q 2547 2688 2374 2813 
Q 2202 2938 1907 2938 
Q 1645 2938 1411 2813 
Q 1178 2688 1034 2477 
Q 890 2266 890 2003 
L 890 192 
Q 890 115 832 57 
Q 774 0 698 0 
Q 608 0 557 57 
Q 506 115 506 192 
L 506 3059 
Q 506 3136 560 3193 
Q 614 3251 698 3251 
Q 781 3251 835 3193 
Q 890 3136 890 3059 
L 890 2464 
L 717 2227 
Q 736 2419 841 2611 
Q 947 2803 1120 2956 
Q 1293 3110 1513 3203 
Q 1734 3296 1978 3296 
z
" transform="scale(0.015625)"/>
       <path id="Quicksand-Regular-62" d="M 2061 3347 
Q 2496 3347 2832 3129 
Q 3168 2912 3366 2531 
Q 3565 2150 3565 1651 
Q 3565 1165 3366 774 
Q 3168 384 2829 160 
Q 2490 -64 2067 -64 
Q 1843 -64 1641 6 
Q 1440 77 1273 195 
Q 1107 314 979 474 
Q 851 634 774 819 
L 890 902 
L 890 179 
Q 890 96 835 41 
Q 781 -13 698 -13 
Q 614 -13 560 41 
Q 506 96 506 179 
L 506 4538 
Q 506 4621 557 4675 
Q 608 4730 698 4730 
Q 781 4730 835 4675 
Q 890 4621 890 4538 
L 890 2394 
L 800 2445 
Q 864 2643 989 2806 
Q 1114 2970 1280 3091 
Q 1446 3213 1644 3280 
Q 1843 3347 2061 3347 
z
M 2029 2989 
Q 1683 2989 1420 2816 
Q 1158 2643 1008 2342 
Q 858 2042 858 1651 
Q 858 1267 1008 956 
Q 1158 646 1420 470 
Q 1683 294 2029 294 
Q 2368 294 2627 473 
Q 2886 653 3040 963 
Q 3194 1274 3194 1651 
Q 3194 2042 3040 2342 
Q 2886 2643 2627 2816 
Q 2368 2989 2029 2989 
z
" transform="scale(0.015625)"/>
       <path id="Quicksand-Regular-65" d="M 1984 -64 
Q 1491 -64 1113 147 
Q 736 358 525 736 
Q 314 1114 314 1619 
Q 314 2163 528 2547 
Q 742 2931 1084 3139 
Q 1427 3347 1811 3347 
Q 2093 3347 2358 3248 
Q 2624 3149 2832 2953 
Q 3040 2758 3165 2476 
Q 3290 2195 3302 1824 
Q 3296 1747 3238 1692 
Q 3181 1638 3104 1638 
L 538 1638 
L 461 1984 
L 2982 1984 
L 2899 1907 
L 2899 2035 
Q 2874 2336 2707 2547 
Q 2541 2758 2304 2867 
Q 2067 2976 1811 2976 
Q 1619 2976 1417 2899 
Q 1216 2822 1053 2659 
Q 890 2496 787 2243 
Q 685 1990 685 1645 
Q 685 1267 838 960 
Q 992 653 1283 473 
Q 1574 294 1978 294 
Q 2202 294 2381 358 
Q 2560 422 2694 528 
Q 2829 634 2918 749 
Q 2989 806 3059 806 
Q 3123 806 3171 755 
Q 3219 704 3219 640 
Q 3219 563 3155 506 
Q 2963 275 2656 105 
Q 2349 -64 1984 -64 
z
" transform="scale(0.015625)"/>
       <path id="Quicksand-Regular-72" d="M 698 0 
Q 608 0 557 57 
Q 506 115 506 192 
L 506 3059 
Q 506 3136 560 3193 
Q 614 3251 698 3251 
Q 781 3251 835 3193 
Q 890 3136 890 3059 
L 890 2099 
L 794 2080 
Q 813 2304 905 2525 
Q 998 2746 1158 2931 
Q 1318 3117 1539 3232 
Q 1760 3347 2035 3347 
Q 2150 3347 2259 3299 
Q 2368 3251 2368 3142 
Q 2368 3046 2317 2995 
Q 2266 2944 2195 2944 
Q 2138 2944 2070 2976 
Q 2003 3008 1894 3008 
Q 1715 3008 1536 2902 
Q 1357 2797 1209 2617 
Q 1062 2438 976 2217 
Q 890 1997 890 1773 
L 890 192 
Q 890 115 832 57 
Q 774 0 698 0 
z
" transform="scale(0.015625)"/>
       <path id="Quicksand-Regular-20" transform="scale(0.015625)"/>
       <path id="Quicksand-Regular-6f" d="M 3552 1638 
Q 3552 1152 3341 765 
Q 3130 378 2765 157 
Q 2400 -64 1933 -64 
Q 1478 -64 1110 157 
Q 742 378 528 765 
Q 314 1152 314 1638 
Q 314 2131 528 2515 
Q 742 2899 1110 3123 
Q 1478 3347 1933 3347 
Q 2400 3347 2765 3123 
Q 3130 2899 3341 2515 
Q 3552 2131 3552 1638 
z
M 3168 1638 
Q 3168 2029 3008 2333 
Q 2848 2637 2569 2813 
Q 2291 2989 1933 2989 
Q 1587 2989 1305 2813 
Q 1024 2637 861 2333 
Q 698 2029 698 1638 
Q 698 1248 861 947 
Q 1024 646 1305 470 
Q 1587 294 1933 294 
Q 2291 294 2569 470 
Q 2848 646 3008 947 
Q 3168 1248 3168 1638 
z
" transform="scale(0.015625)"/>
       <path id="Quicksand-Regular-66" d="M 1690 4710 
Q 1786 4710 1898 4691 
Q 2010 4672 2093 4624 
Q 2176 4576 2176 4480 
Q 2176 4410 2125 4355 
Q 2074 4301 2010 4301 
Q 1946 4301 1850 4336 
Q 1754 4371 1645 4371 
Q 1510 4371 1414 4310 
Q 1318 4250 1267 4138 
Q 1216 4026 1216 3866 
L 1216 192 
Q 1216 115 1161 57 
Q 1107 0 1024 0 
Q 941 0 886 57 
Q 832 115 832 192 
L 832 3866 
Q 832 4275 1072 4492 
Q 1312 4710 1690 4710 
z
M 1933 3206 
Q 2010 3206 2061 3155 
Q 2112 3104 2112 3027 
Q 2112 2950 2061 2899 
Q 2010 2848 1933 2848 
L 365 2848 
Q 294 2848 240 2902 
Q 186 2957 186 3027 
Q 186 3110 240 3158 
Q 294 3206 365 3206 
L 1933 3206 
z
" transform="scale(0.015625)"/>
       <path id="Quicksand-Regular-6c" d="M 928 192 
Q 928 115 870 57 
Q 813 0 736 0 
Q 653 0 598 57 
Q 544 115 544 192 
L 544 4544 
Q 544 4621 601 4678 
Q 659 4736 736 4736 
Q 819 4736 873 4678 
Q 928 4621 928 4544 
L 928 192 
z
" transform="scale(0.015625)"/>
       <path id="Quicksand-Regular-56" d="M 3840 4486 
Q 3930 4486 3984 4435 
Q 4038 4384 4038 4307 
Q 4038 4262 4019 4211 
L 2310 128 
Q 2278 64 2227 32 
Q 2176 0 2125 0 
Q 2067 0 2016 32 
Q 1965 64 1946 122 
L 243 4198 
Q 237 4218 230 4243 
Q 224 4269 224 4301 
Q 224 4384 285 4435 
Q 346 4486 410 4486 
Q 544 4486 602 4346 
L 2202 518 
L 2086 518 
L 3661 4358 
Q 3725 4486 3840 4486 
z
" transform="scale(0.015625)"/>
       <path id="Quicksand-Regular-61" d="M 3187 3270 
Q 3270 3270 3324 3212 
Q 3379 3155 3379 3072 
L 3379 192 
Q 3379 115 3321 57 
Q 3264 0 3187 0 
Q 3104 0 3049 57 
Q 2995 115 2995 192 
L 2995 954 
L 3104 1005 
Q 3104 826 3005 640 
Q 2906 454 2733 294 
Q 2560 134 2326 35 
Q 2093 -64 1824 -64 
Q 1389 -64 1046 160 
Q 704 384 509 774 
Q 314 1165 314 1651 
Q 314 2150 512 2531 
Q 710 2912 1049 3129 
Q 1389 3347 1818 3347 
Q 2093 3347 2333 3251 
Q 2573 3155 2752 2988 
Q 2931 2822 3030 2608 
Q 3130 2394 3130 2163 
L 2995 2259 
L 2995 3072 
Q 2995 3155 3049 3212 
Q 3104 3270 3187 3270 
z
M 1856 294 
Q 2195 294 2457 470 
Q 2720 646 2870 956 
Q 3021 1267 3021 1651 
Q 3021 2029 2870 2329 
Q 2720 2630 2457 2809 
Q 2195 2989 1856 2989 
Q 1523 2989 1257 2816 
Q 992 2643 841 2342 
Q 691 2042 691 1651 
Q 691 1267 841 956 
Q 992 646 1254 470 
Q 1517 294 1856 294 
z
" transform="scale(0.015625)"/>
       <path id="Quicksand-Regular-73" d="M 320 518 
Q 269 595 272 668 
Q 275 742 352 787 
Q 403 832 470 825 
Q 538 819 595 762 
Q 768 538 1014 400 
Q 1261 262 1600 262 
Q 1779 262 1955 323 
Q 2131 384 2246 509 
Q 2362 634 2362 826 
Q 2362 1024 2246 1145 
Q 2131 1267 1948 1337 
Q 1766 1408 1562 1459 
Q 1344 1517 1139 1590 
Q 934 1664 777 1776 
Q 621 1888 525 2048 
Q 429 2208 429 2438 
Q 429 2707 576 2912 
Q 723 3117 976 3232 
Q 1229 3347 1549 3347 
Q 1709 3347 1894 3305 
Q 2080 3264 2259 3168 
Q 2438 3072 2579 2906 
Q 2637 2848 2637 2774 
Q 2637 2701 2573 2643 
Q 2522 2605 2454 2605 
Q 2387 2605 2342 2656 
Q 2189 2829 1977 2918 
Q 1766 3008 1523 3008 
Q 1338 3008 1174 2947 
Q 1011 2886 902 2764 
Q 794 2643 794 2445 
Q 806 2259 924 2144 
Q 1043 2029 1238 1952 
Q 1434 1875 1677 1811 
Q 1882 1760 2070 1689 
Q 2259 1619 2403 1513 
Q 2547 1408 2633 1248 
Q 2720 1088 2720 845 
Q 2720 563 2563 358 
Q 2406 154 2144 45 
Q 1882 -64 1562 -64 
Q 1216 -64 893 70 
Q 570 205 320 518 
z
" transform="scale(0.015625)"/>
      </defs>
      <use xlink:href="#Quicksand-Regular-4e"/>
      <use xlink:href="#Quicksand-Regular-75" x="72.799988"/>
      <use xlink:href="#Quicksand-Regular-6d" x="129.699982"/>
      <use xlink:href="#Quicksand-Regular-62" x="220.899963"/>
      <use xlink:href="#Quicksand-Regular-65" x="281.499954"/>
      <use xlink:href="#Quicksand-Regular-72" x="337.999939"/>
      <use xlink:href="#Quicksand-Regular-20" x="376.499924"/>
      <use xlink:href="#Quicksand-Regular-6f" x="403.799911"/>
      <use xlink:href="#Quicksand-Regular-66" x="464.199905"/>
      <use xlink:href="#Quicksand-Regular-20" x="500.19989"/>
      <use xlink:href="#Quicksand-Regular-4e" x="527.499878"/>
      <use xlink:href="#Quicksand-Regular-75" x="600.299866"/>
      <use xlink:href="#Quicksand-Regular-6c" x="657.19986"/>
      <use xlink:href="#Quicksand-Regular-6c" x="680.199844"/>
      <use xlink:href="#Quicksand-Regular-20" x="703.199829"/>
      <use xlink:href="#Quicksand-Regular-56" x="730.499817"/>
      <use xlink:href="#Quicksand-Regular-61" x="796.999802"/>
      <use xlink:href="#Quicksand-Regular-6c" x="857.599792"/>
      <use xlink:href="#Quicksand-Regular-75" x="880.599777"/>
      <use xlink:href="#Quicksand-Regular-65" x="937.499771"/>
      <use xlink:href="#Quicksand-Regular-73" x="993.999756"/>
     </g>
    </g>
   </g>
   <g id="matplotlib.axis_2">
    <g id="ytick_1">
     <g id="line2d_8">
      <path d="M 72 252 
L 518.4 252 
" clip-path="url(#p4fb9d202bb)" style="fill: none; stroke: #808080; stroke-opacity: 0.4; stroke-width: 0.8; stroke-linecap: square"/>
     </g>
    </g>
    <g id="ytick_2">
     <g id="line2d_9">
      <path d="M 72 220.572607 
L 518.4 220.572607 
" clip-path="url(#p4fb9d202bb)" style="fill: none; stroke: #808080; stroke-opacity: 0.4; stroke-width: 0.8; stroke-linecap: square"/>
     </g>
    </g>
    <g id="ytick_3">
     <g id="line2d_10">
      <path d="M 72 189.145214 
L 518.4 189.145214 
" clip-path="url(#p4fb9d202bb)" style="fill: none; stroke: #808080; stroke-opacity: 0.4; stroke-width: 0.8; stroke-linecap: square"/>
     </g>
    </g>
    <g id="ytick_4">
     <g id="line2d_11">
      <path d="M 72 157.717821 
L 518.4 157.717821 
" clip-path="url(#p4fb9d202bb)" style="fill: none; stroke: #808080; stroke-opacity: 0.4; stroke-width: 0.8; stroke-linecap: square"/>
     </g>
    </g>
    <g id="ytick_5">
     <g id="line2d_12">
      <path d="M 72 126.290428 
L 518.4 126.290428 
" clip-path="url(#p4fb9d202bb)" style="fill: none; stroke: #808080; stroke-opacity: 0.4; stroke-width: 0.8; stroke-linecap: square"/>
     </g>
    </g>
    <g id="ytick_6">
     <g id="line2d_13">
      <path d="M 72 94.863035 
L 518.4 94.863035 
" clip-path="url(#p4fb9d202bb)" style="fill: none; stroke: #808080; stroke-opacity: 0.4; stroke-width: 0.8; stroke-linecap: square"/>
     </g>
    </g>
    <g id="ytick_7">
     <g id="line2d_14">
      <path d="M 72 63.435643 
L 518.4 63.435643 
" clip-path="url(#p4fb9d202bb)" style="fill: none; stroke: #808080; stroke-opacity: 0.4; stroke-width: 0.8; stroke-linecap: square"/>
     </g>
    </g>
   </g>
   <g id="patch_3">
    <path d="M 92.290909 252 
L 132.872727 252 
L 132.872727 44.914286 
L 92.290909 44.914286 
z
" clip-path="url(#p4fb9d202bb)" style="fill: #296939"/>
   </g>
   <g id="patch_4">
    <path d="M 132.872727 252 
L 173.454545 252 
L 173.454545 249.440459 
L 132.872727 249.440459 
z
" clip-path="url(#p4fb9d202bb)" style="fill: #296939"/>
   </g>
   <g id="patch_5">
    <path d="M 173.454545 252 
L 214.036364 252 
L 214.036364 252 
L 173.454545 252 
z
" clip-path="url(#p4fb9d202bb)" style="fill: #296939"/>
   </g>
   <g id="patch_6">
    <path d="M 214.036364 252 
L 254.618182 252 
L 254.618182 252 
L 214.036364 252 
z
" clip-path="url(#p4fb9d202bb)" style="fill: #296939"/>
   </g>
   <g id="patch_7">
    <path d="M 254.618182 252 
L 295.2 252 
L 295.2 252 
L 254.618182 252 
z
" clip-path="url(#p4fb9d202bb)" style="fill: #296939"/>
   </g>
   <g id="patch_8">
    <path d="M 295.2 252 
L 335.781818 252 
L 335.781818 252 
L 295.2 252 
z
" clip-path="url(#p4fb9d202bb)" style="fill: #296939"/>
   </g>
   <g id="patch_9">
    <path d="M 335.781818 252 
L 376.363636 252 
L 376.363636 252 
L 335.781818 252 
z
" clip-path="url(#p4fb9d202bb)" style="fill: #296939"/>
   </g>
   <g id="patch_10">
    <path d="M 376.363636 252 
L 416.945455 252 
L 416.945455 252 
L 376.363636 252 
z
" clip-path="url(#p4fb9d202bb)" style="fill: #296939"/>
   </g>
   <g id="patch_11">
    <path d="M 416.945455 252 
L 457.527273 252 
L 457.527273 251.998743 
L 416.945455 251.998743 
z
" clip-path="url(#p4fb9d202bb)" style="fill: #296939"/>
   </g>
   <g id="patch_12">
    <path d="M 457.527273 252 
L 498.109091 252 
L 498.109091 191.693002 
L 457.527273 191.693002 
z
" clip-path="url(#p4fb9d202bb)" style="fill: #296939"/>
   </g>
   <g id="patch_13">
    <path d="M 72 252 
L 518.4 252 
" style="fill: none; stroke: #000000; stroke-width: 0.8; stroke-linejoin: miter; stroke-linecap: square"/>
   </g>
   <g id="text_9">
    <!-- 0 -->
    <g transform="translate(543.032958 250)scale(0.1 -0.1)">
     <defs>
      <path id="Quicksand-Light-30" d="M 1882 -64 
Q 1376 -64 1043 246 
Q 710 557 547 1081 
Q 384 1606 384 2240 
Q 384 2880 547 3401 
Q 710 3923 1043 4233 
Q 1376 4544 1882 4544 
Q 2394 4544 2723 4233 
Q 3053 3923 3216 3401 
Q 3379 2880 3379 2240 
Q 3379 1606 3216 1081 
Q 3053 557 2723 246 
Q 2394 -64 1882 -64 
z
M 1882 205 
Q 2291 205 2563 467 
Q 2835 730 2972 1190 
Q 3110 1651 3110 2240 
Q 3110 2835 2972 3296 
Q 2835 3757 2563 4016 
Q 2291 4275 1882 4275 
Q 1472 4275 1200 4016 
Q 928 3757 790 3296 
Q 653 2835 653 2240 
Q 653 1651 790 1190 
Q 928 730 1200 467 
Q 1472 205 1882 205 
z
" transform="scale(0.015625)"/>
     </defs>
     <use xlink:href="#Quicksand-Light-30"/>
    </g>
   </g>
   <g id="text_10">
    <!-- 1,000,000 -->
    <g transform="translate(506.664208 218.572607)scale(0.1 -0.1)">
     <defs>
      <path id="Quicksand-Light-31" d="M 1421 0 
Q 1363 0 1324 38 
Q 1286 77 1286 128 
L 1286 4186 
L 1350 4147 
L 371 3501 
Q 333 3475 301 3475 
Q 243 3475 201 3523 
Q 160 3571 160 3616 
Q 160 3686 230 3725 
L 1350 4461 
Q 1382 4480 1408 4483 
Q 1434 4486 1459 4480 
Q 1504 4474 1529 4438 
Q 1555 4403 1555 4352 
L 1555 128 
Q 1555 77 1516 38 
Q 1478 0 1421 0 
z
" transform="scale(0.015625)"/>
      <path id="Quicksand-Light-2c" d="M 890 -83 
Q 890 -243 794 -390 
Q 698 -538 566 -630 
Q 435 -723 314 -723 
Q 269 -723 233 -700 
Q 198 -678 198 -608 
Q 198 -538 246 -531 
Q 294 -525 397 -474 
Q 512 -416 573 -333 
Q 634 -250 634 -147 
Q 634 -58 592 -16 
Q 550 26 499 26 
Q 454 26 409 10 
Q 365 -6 333 -32 
Q 307 0 291 38 
Q 275 77 282 115 
Q 294 192 377 249 
Q 461 307 563 307 
Q 704 307 797 182 
Q 890 58 890 -83 
z
" transform="scale(0.015625)"/>
     </defs>
     <use xlink:href="#Quicksand-Light-31"/>
     <use xlink:href="#Quicksand-Light-2c" x="36.299988"/>
     <use xlink:href="#Quicksand-Light-30" x="52.999985"/>
     <use xlink:href="#Quicksand-Light-30" x="111.799973"/>
     <use xlink:href="#Quicksand-Light-30" x="170.59996"/>
     <use xlink:href="#Quicksand-Light-2c" x="229.399948"/>
     <use xlink:href="#Quicksand-Light-30" x="246.099945"/>
     <use xlink:href="#Quicksand-Light-30" x="304.899933"/>
     <use xlink:href="#Quicksand-Light-30" x="363.699921"/>
    </g>
   </g>
   <g id="text_11">
    <!-- 2,000,000 -->
    <g transform="translate(504.80327 187.145214)scale(0.1 -0.1)">
     <defs>
      <path id="Quicksand-Light-32" d="M 3066 256 
Q 3117 256 3155 217 
Q 3194 179 3194 128 
Q 3194 70 3155 35 
Q 3117 0 3066 0 
L 595 0 
Q 538 0 486 29 
Q 435 58 435 134 
Q 435 173 467 218 
L 1971 1894 
Q 2368 2323 2557 2665 
Q 2746 3008 2746 3283 
Q 2746 3738 2464 4013 
Q 2182 4288 1709 4288 
Q 1485 4288 1267 4198 
Q 1050 4109 886 3961 
Q 723 3814 646 3635 
Q 621 3578 592 3555 
Q 563 3533 512 3533 
Q 461 3533 422 3561 
Q 384 3590 384 3635 
Q 384 3661 390 3683 
Q 397 3706 416 3750 
Q 518 3962 726 4141 
Q 934 4320 1200 4432 
Q 1466 4544 1728 4544 
Q 2125 4544 2416 4390 
Q 2707 4237 2867 3961 
Q 3027 3686 3027 3309 
Q 3027 2982 2822 2598 
Q 2618 2214 2182 1741 
L 806 179 
L 749 256 
L 3066 256 
z
" transform="scale(0.015625)"/>
     </defs>
     <use xlink:href="#Quicksand-Light-32"/>
     <use xlink:href="#Quicksand-Light-2c" x="54.899994"/>
     <use xlink:href="#Quicksand-Light-30" x="71.599991"/>
     <use xlink:href="#Quicksand-Light-30" x="130.399979"/>
     <use xlink:href="#Quicksand-Light-30" x="189.199966"/>
     <use xlink:href="#Quicksand-Light-2c" x="247.999954"/>
     <use xlink:href="#Quicksand-Light-30" x="264.699951"/>
     <use xlink:href="#Quicksand-Light-30" x="323.499939"/>
     <use xlink:href="#Quicksand-Light-30" x="382.299927"/>
    </g>
   </g>
   <g id="text_12">
    <!-- 3,000,000 -->
    <g transform="translate(505.10327 155.717821)scale(0.1 -0.1)">
     <defs>
      <path id="Quicksand-Light-33" d="M 518 576 
Q 544 576 569 566 
Q 595 557 634 512 
Q 774 358 972 281 
Q 1171 205 1421 205 
Q 1773 205 2057 358 
Q 2342 512 2512 787 
Q 2682 1062 2682 1414 
Q 2682 1824 2496 2077 
Q 2310 2330 2028 2448 
Q 1747 2566 1453 2566 
Q 1408 2566 1350 2563 
Q 1293 2560 1245 2553 
Q 1197 2547 1190 2547 
Q 1133 2547 1097 2585 
Q 1062 2624 1062 2688 
Q 1062 2714 1075 2739 
Q 1088 2765 1114 2797 
L 2470 4282 
L 2509 4192 
L 448 4192 
Q 397 4192 358 4230 
Q 320 4269 320 4320 
Q 320 4378 358 4413 
Q 397 4448 448 4448 
L 2662 4448 
Q 2746 4448 2771 4393 
Q 2797 4339 2797 4314 
Q 2797 4288 2787 4265 
Q 2778 4243 2752 4218 
L 1402 2733 
L 1274 2771 
Q 1274 2790 1379 2809 
Q 1485 2829 1549 2829 
Q 1888 2829 2211 2675 
Q 2534 2522 2742 2208 
Q 2950 1894 2950 1414 
Q 2950 973 2739 640 
Q 2528 307 2179 121 
Q 1830 -64 1421 -64 
Q 1146 -64 883 35 
Q 621 134 422 346 
Q 403 365 393 387 
Q 384 410 384 435 
Q 384 486 422 531 
Q 461 576 518 576 
z
" transform="scale(0.015625)"/>
     </defs>
     <use xlink:href="#Quicksand-Light-33"/>
     <use xlink:href="#Quicksand-Light-2c" x="51.899994"/>
     <use xlink:href="#Quicksand-Light-30" x="68.599991"/>
     <use xlink:href="#Quicksand-Light-30" x="127.399979"/>
     <use xlink:href="#Quicksand-Light-30" x="186.199966"/>
     <use xlink:href="#Quicksand-Light-2c" x="244.999954"/>
     <use xlink:href="#Quicksand-Light-30" x="261.699951"/>
     <use xlink:href="#Quicksand-Light-30" x="320.499939"/>
     <use xlink:href="#Quicksand-Light-30" x="379.299927"/>
    </g>
   </g>
   <g id="text_13">
    <!-- 4,000,000 -->
    <g transform="translate(505.23452 124.290428)scale(0.1 -0.1)">
     <defs>
      <path id="Quicksand-Light-34" d="M 2304 0 
Q 2246 0 2211 38 
Q 2176 77 2176 128 
L 2176 4128 
L 2246 4077 
L 416 1613 
L 397 1683 
L 2918 1683 
Q 2970 1683 3008 1648 
Q 3046 1613 3046 1562 
Q 3046 1510 3008 1475 
Q 2970 1440 2918 1440 
L 224 1440 
Q 166 1440 131 1485 
Q 96 1530 96 1574 
Q 96 1626 128 1658 
L 2195 4429 
Q 2227 4467 2262 4473 
Q 2298 4480 2304 4480 
Q 2362 4480 2397 4441 
Q 2432 4403 2432 4352 
L 2432 128 
Q 2432 77 2393 38 
Q 2355 0 2304 0 
z
" transform="scale(0.015625)"/>
     </defs>
     <use xlink:href="#Quicksand-Light-34"/>
     <use xlink:href="#Quicksand-Light-2c" x="50.599991"/>
     <use xlink:href="#Quicksand-Light-30" x="67.299988"/>
     <use xlink:href="#Quicksand-Light-30" x="126.099976"/>
     <use xlink:href="#Quicksand-Light-30" x="184.899963"/>
     <use xlink:href="#Quicksand-Light-2c" x="243.699951"/>
     <use xlink:href="#Quicksand-Light-30" x="260.399948"/>
     <use xlink:href="#Quicksand-Light-30" x="319.199936"/>
     <use xlink:href="#Quicksand-Light-30" x="377.999924"/>
    </g>
   </g>
   <g id="text_14">
    <!-- 5,000,000 -->
    <g transform="translate(504.943895 92.863035)scale(0.1 -0.1)">
     <defs>
      <path id="Quicksand-Light-35" d="M 1485 6 
Q 1210 6 947 96 
Q 685 186 467 365 
Q 442 384 429 409 
Q 416 435 416 461 
Q 416 506 454 557 
Q 493 608 544 608 
Q 595 608 634 570 
Q 819 416 1040 339 
Q 1261 262 1485 262 
Q 1888 262 2189 419 
Q 2490 576 2653 864 
Q 2816 1152 2816 1530 
Q 2816 1882 2665 2147 
Q 2515 2413 2230 2563 
Q 1946 2714 1549 2714 
Q 1306 2714 1101 2640 
Q 896 2566 755 2492 
Q 614 2419 544 2419 
Q 512 2419 483 2438 
Q 454 2458 441 2493 
Q 429 2528 435 2573 
L 736 4333 
Q 742 4365 777 4403 
Q 813 4442 877 4442 
L 2829 4442 
Q 2880 4442 2918 4403 
Q 2957 4365 2957 4307 
Q 2957 4250 2918 4211 
Q 2880 4173 2829 4173 
L 928 4173 
L 986 4230 
L 691 2637 
L 563 2669 
Q 666 2733 829 2800 
Q 992 2867 1200 2915 
Q 1408 2963 1645 2963 
Q 2054 2963 2374 2784 
Q 2694 2605 2883 2288 
Q 3072 1971 3072 1549 
Q 3072 1088 2877 742 
Q 2682 397 2326 201 
Q 1971 6 1485 6 
z
" transform="scale(0.015625)"/>
     </defs>
     <use xlink:href="#Quicksand-Light-35"/>
     <use xlink:href="#Quicksand-Light-2c" x="53.499985"/>
     <use xlink:href="#Quicksand-Light-30" x="70.199982"/>
     <use xlink:href="#Quicksand-Light-30" x="128.999969"/>
     <use xlink:href="#Quicksand-Light-30" x="187.799957"/>
     <use xlink:href="#Quicksand-Light-2c" x="246.599945"/>
     <use xlink:href="#Quicksand-Light-30" x="263.299942"/>
     <use xlink:href="#Quicksand-Light-30" x="322.09993"/>
     <use xlink:href="#Quicksand-Light-30" x="380.899918"/>
    </g>
   </g>
   <g id="text_15">
    <!-- 6,000,000 -->
    <g transform="translate(504.964208 61.435643)scale(0.1 -0.1)">
     <defs>
      <path id="Quicksand-Light-36" d="M 1843 -64 
Q 1459 -64 1180 67 
Q 902 198 726 419 
Q 550 640 467 918 
Q 384 1197 384 1485 
Q 384 1824 473 2195 
Q 563 2566 732 2937 
Q 902 3309 1142 3638 
Q 1382 3968 1686 4230 
Q 1990 4493 2342 4640 
Q 2381 4653 2400 4653 
Q 2458 4653 2499 4617 
Q 2541 4582 2541 4506 
Q 2541 4467 2518 4438 
Q 2496 4410 2451 4390 
Q 2163 4262 1884 4022 
Q 1606 3782 1369 3472 
Q 1133 3162 966 2816 
Q 800 2470 736 2125 
L 608 2010 
Q 730 2253 931 2432 
Q 1133 2611 1385 2710 
Q 1638 2810 1914 2810 
Q 2221 2810 2461 2685 
Q 2701 2560 2870 2352 
Q 3040 2144 3129 1885 
Q 3219 1626 3219 1350 
Q 3219 986 3043 662 
Q 2867 339 2556 137 
Q 2246 -64 1843 -64 
z
M 1830 192 
Q 2157 192 2409 339 
Q 2662 486 2806 745 
Q 2950 1005 2950 1350 
Q 2950 1658 2832 1930 
Q 2714 2202 2474 2374 
Q 2234 2547 1869 2547 
Q 1478 2547 1206 2377 
Q 934 2208 790 1929 
Q 646 1651 646 1325 
Q 646 1037 784 777 
Q 922 518 1187 355 
Q 1453 192 1830 192 
z
" transform="scale(0.015625)"/>
     </defs>
     <use xlink:href="#Quicksand-Light-36"/>
     <use xlink:href="#Quicksand-Light-2c" x="53.299988"/>
     <use xlink:href="#Quicksand-Light-30" x="69.999985"/>
     <use xlink:href="#Quicksand-Light-30" x="128.799973"/>
     <use xlink:href="#Quicksand-Light-30" x="187.59996"/>
     <use xlink:href="#Quicksand-Light-2c" x="246.399948"/>
     <use xlink:href="#Quicksand-Light-30" x="263.099945"/>
     <use xlink:href="#Quicksand-Light-30" x="321.899933"/>
     <use xlink:href="#Quicksand-Light-30" x="380.699921"/>
    </g>
   </g>
   <g id="text_16">
    <!-- Number of Null Values in Given Row -->
    <g transform="translate(195.436875 28.56)scale(0.12 -0.12)">
     <defs>
      <path id="Quicksand-Regular-69" d="M 877 192 
Q 877 115 819 57 
Q 762 0 685 0 
Q 602 0 547 57 
Q 493 115 493 192 
L 493 3136 
Q 493 3213 547 3270 
Q 602 3328 685 3328 
Q 768 3328 822 3270 
Q 877 3213 877 3136 
L 877 192 
z
M 685 3763 
Q 550 3763 483 3824 
Q 416 3885 416 4000 
L 416 4064 
Q 416 4179 489 4240 
Q 563 4301 691 4301 
Q 813 4301 880 4240 
Q 947 4179 947 4064 
L 947 4000 
Q 947 3885 880 3824 
Q 813 3763 685 3763 
z
" transform="scale(0.015625)"/>
      <path id="Quicksand-Regular-6e" d="M 2048 3347 
Q 2470 3347 2723 3177 
Q 2976 3008 3088 2717 
Q 3200 2426 3200 2074 
L 3200 192 
Q 3200 115 3142 57 
Q 3085 0 3008 0 
Q 2918 0 2867 57 
Q 2816 115 2816 192 
L 2816 2054 
Q 2816 2310 2733 2521 
Q 2650 2733 2461 2861 
Q 2272 2989 1965 2989 
Q 1690 2989 1443 2861 
Q 1197 2733 1043 2521 
Q 890 2310 890 2054 
L 890 192 
Q 890 115 832 57 
Q 774 0 698 0 
Q 608 0 557 57 
Q 506 115 506 192 
L 506 3059 
Q 506 3136 560 3193 
Q 614 3251 698 3251 
Q 781 3251 835 3193 
Q 890 3136 890 3059 
L 890 2522 
L 742 2291 
Q 755 2496 873 2685 
Q 992 2874 1177 3024 
Q 1363 3174 1590 3260 
Q 1818 3347 2048 3347 
z
" transform="scale(0.015625)"/>
      <path id="Quicksand-Regular-47" d="M 2611 -64 
Q 2118 -64 1696 109 
Q 1274 282 963 592 
Q 653 902 480 1324 
Q 307 1747 307 2240 
Q 307 2733 480 3155 
Q 653 3578 963 3888 
Q 1274 4198 1696 4371 
Q 2118 4544 2611 4544 
Q 2950 4544 3267 4464 
Q 3584 4384 3834 4224 
Q 3878 4192 3900 4150 
Q 3923 4109 3923 4064 
Q 3923 3974 3865 3920 
Q 3808 3866 3744 3866 
Q 3712 3866 3683 3875 
Q 3654 3885 3629 3898 
Q 3411 4019 3155 4089 
Q 2899 4160 2611 4160 
Q 2061 4160 1632 3910 
Q 1203 3661 960 3225 
Q 717 2790 717 2240 
Q 717 1690 960 1254 
Q 1203 819 1632 569 
Q 2061 320 2611 320 
Q 2899 320 3190 403 
Q 3482 486 3693 627 
L 3661 493 
L 3661 1965 
L 3757 1875 
L 2650 1875 
Q 2566 1875 2508 1932 
Q 2451 1990 2451 2067 
Q 2451 2157 2508 2208 
Q 2566 2259 2650 2259 
L 3872 2259 
Q 3955 2259 4009 2204 
Q 4064 2150 4064 2067 
L 4064 525 
Q 4064 474 4038 429 
Q 4013 384 3968 352 
Q 3686 160 3337 48 
Q 2989 -64 2611 -64 
z
" transform="scale(0.015625)"/>
      <path id="Quicksand-Regular-76" d="M 429 3341 
Q 480 3341 531 3309 
Q 582 3277 608 3213 
L 1728 550 
L 1645 499 
L 2790 3213 
Q 2842 3341 2976 3334 
Q 3040 3334 3097 3292 
Q 3155 3251 3155 3174 
Q 3155 3136 3145 3113 
Q 3136 3091 3130 3066 
L 1875 122 
Q 1824 6 1702 0 
Q 1645 -6 1590 29 
Q 1536 64 1510 122 
L 250 3066 
Q 243 3078 236 3104 
Q 230 3130 230 3155 
Q 230 3226 281 3283 
Q 333 3341 429 3341 
z
" transform="scale(0.015625)"/>
      <path id="Quicksand-Regular-52" d="M 819 0 
Q 723 0 662 57 
Q 602 115 602 192 
L 602 4288 
Q 602 4365 659 4422 
Q 717 4480 794 4480 
L 2522 4480 
Q 2886 4480 3174 4323 
Q 3462 4166 3625 3891 
Q 3789 3616 3789 3270 
Q 3789 2989 3686 2752 
Q 3584 2515 3398 2352 
Q 3213 2189 2982 2112 
L 2758 2182 
Q 2995 2163 3200 2032 
Q 3405 1901 3529 1673 
Q 3654 1446 3661 1126 
Q 3667 851 3689 697 
Q 3712 544 3757 467 
Q 3802 390 3872 346 
Q 3936 307 3958 236 
Q 3981 166 3942 102 
Q 3917 51 3869 28 
Q 3821 6 3769 6 
Q 3718 6 3667 32 
Q 3578 83 3485 192 
Q 3392 301 3331 512 
Q 3270 723 3270 1101 
Q 3270 1350 3190 1510 
Q 3110 1670 2985 1756 
Q 2861 1843 2710 1878 
Q 2560 1914 2426 1914 
L 934 1914 
L 1005 2003 
L 1005 192 
Q 1005 115 953 57 
Q 902 0 819 0 
z
M 934 2266 
L 2541 2266 
Q 2758 2285 2950 2409 
Q 3142 2534 3260 2752 
Q 3379 2970 3379 3258 
Q 3379 3622 3132 3862 
Q 2886 4102 2490 4102 
L 960 4102 
L 1005 4192 
L 1005 2176 
L 934 2266 
z
" transform="scale(0.015625)"/>
      <path id="Quicksand-Regular-77" d="M 4390 3341 
Q 4461 3341 4521 3289 
Q 4582 3238 4582 3149 
Q 4582 3130 4576 3104 
Q 4570 3078 4563 3066 
L 3578 122 
Q 3552 64 3497 29 
Q 3443 -6 3386 0 
Q 3270 6 3213 122 
L 2310 2246 
L 2426 2221 
L 1626 122 
Q 1574 6 1453 0 
Q 1395 -6 1337 29 
Q 1280 64 1261 122 
L 250 3066 
Q 230 3110 230 3149 
Q 230 3232 284 3286 
Q 339 3341 429 3341 
Q 486 3341 534 3309 
Q 582 3277 602 3213 
L 1510 486 
L 1389 493 
L 2214 2573 
Q 2266 2694 2394 2694 
Q 2458 2694 2502 2662 
Q 2547 2630 2573 2573 
L 3450 486 
L 3309 480 
L 4211 3213 
Q 4250 3341 4390 3341 
z
" transform="scale(0.015625)"/>
     </defs>
     <use xlink:href="#Quicksand-Regular-4e"/>
     <use xlink:href="#Quicksand-Regular-75" x="72.799988"/>
     <use xlink:href="#Quicksand-Regular-6d" x="129.699982"/>
     <use xlink:href="#Quicksand-Regular-62" x="220.899963"/>
     <use xlink:href="#Quicksand-Regular-65" x="281.499954"/>
     <use xlink:href="#Quicksand-Regular-72" x="337.999939"/>
     <use xlink:href="#Quicksand-Regular-20" x="376.499924"/>
     <use xlink:href="#Quicksand-Regular-6f" x="403.799911"/>
     <use xlink:href="#Quicksand-Regular-66" x="464.199905"/>
     <use xlink:href="#Quicksand-Regular-20" x="500.19989"/>
     <use xlink:href="#Quicksand-Regular-4e" x="527.499878"/>
     <use xlink:href="#Quicksand-Regular-75" x="600.299866"/>
     <use xlink:href="#Quicksand-Regular-6c" x="657.19986"/>
     <use xlink:href="#Quicksand-Regular-6c" x="680.199844"/>
     <use xlink:href="#Quicksand-Regular-20" x="703.199829"/>
     <use xlink:href="#Quicksand-Regular-56" x="730.499817"/>
     <use xlink:href="#Quicksand-Regular-61" x="796.999802"/>
     <use xlink:href="#Quicksand-Regular-6c" x="857.599792"/>
     <use xlink:href="#Quicksand-Regular-75" x="880.599777"/>
     <use xlink:href="#Quicksand-Regular-65" x="937.499771"/>
     <use xlink:href="#Quicksand-Regular-73" x="993.999756"/>
     <use xlink:href="#Quicksand-Regular-20" x="1040.89975"/>
     <use xlink:href="#Quicksand-Regular-69" x="1068.199738"/>
     <use xlink:href="#Quicksand-Regular-6e" x="1089.599731"/>
     <use xlink:href="#Quicksand-Regular-20" x="1147.399719"/>
     <use xlink:href="#Quicksand-Regular-47" x="1174.699707"/>
     <use xlink:href="#Quicksand-Regular-69" x="1244.199692"/>
     <use xlink:href="#Quicksand-Regular-76" x="1265.599686"/>
     <use xlink:href="#Quicksand-Regular-65" x="1318.49968"/>
     <use xlink:href="#Quicksand-Regular-6e" x="1374.999664"/>
     <use xlink:href="#Quicksand-Regular-20" x="1432.799652"/>
     <use xlink:href="#Quicksand-Regular-52" x="1460.09964"/>
     <use xlink:href="#Quicksand-Regular-6f" x="1527.099625"/>
     <use xlink:href="#Quicksand-Regular-77" x="1587.499619"/>
    </g>
   </g>
  </g>
 </g>
 <defs>
  <clipPath id="p4fb9d202bb">
   <rect x="72" y="34.56" width="446.4" height="217.44"/>
  </clipPath>
 </defs>
</svg>
